<svg width="367" height="80" viewBox="0 0 367 80" fill="none" xmlns="http://www.w3.org/2000/svg">
<path d="M131 54C125.472 67.5177 112.554 77 97.5 77C82.4457 77 69.5277 67.5177 64 54" stroke="url(#paint0_linear_3902_3)" stroke-width="5.05" stroke-linecap="round"/>
<path d="M131 26C125.472 12.4823 112.554 3 97.5 3C82.4457 3 69.5277 12.4823 64 26" stroke="url(#paint1_linear_3902_3)" stroke-width="5.05" stroke-linecap="round"/>
<path d="M6.55259 48.8781C5.56263 48.8781 4.6591 48.7231 3.84199 48.413C3.04059 48.0875 2.35705 47.6224 1.79136 47.0178C1.22566 46.4132 0.785683 45.6846 0.47141 44.832C0.157137 43.9639 0 42.9795 0 41.8789V31.8567H3.18202V42.0649C3.18202 42.623 3.25273 43.1345 3.39415 43.5996C3.53557 44.0647 3.74771 44.4677 4.03055 44.8088C4.3134 45.1498 4.66696 45.4211 5.09122 45.6226C5.51549 45.8087 6.00262 45.9017 6.55259 45.9017C7.11829 45.9017 7.61327 45.8087 8.03753 45.6226C8.4618 45.4211 8.81536 45.1498 9.09821 44.8088C9.38105 44.4677 9.59319 44.0647 9.73461 43.5996C9.87603 43.1345 9.94674 42.623 9.94674 42.0649V31.8567H13.1288V41.8789C13.1288 42.9175 12.9716 43.8709 12.6573 44.739C12.3588 45.5916 11.9188 46.328 11.3374 46.9481C10.7717 47.5527 10.0803 48.0255 9.2632 48.3665C8.4618 48.7076 7.55827 48.8781 6.55259 48.8781Z" fill="white"/>
<path d="M16.1445 31.8567H22.2964C23.1449 31.8567 23.9149 31.9885 24.6063 32.252C25.2977 32.5156 25.887 32.8799 26.3741 33.3449C26.8769 33.81 27.2619 34.3681 27.529 35.0192C27.7962 35.6547 27.9297 36.3523 27.9297 37.112C27.9297 37.67 27.8354 38.1971 27.6469 38.6932C27.4583 39.1737 27.199 39.6156 26.8691 40.0186C26.5391 40.4062 26.1541 40.755 25.7141 41.065C25.2741 41.3595 24.8106 41.5921 24.3235 41.7626L24.2999 41.9254L28.8254 48.32V48.506H25.172L20.8114 42.2509H19.3265V48.506H16.1445V31.8567ZM22.2728 39.3675C22.9956 39.3675 23.5849 39.1505 24.0406 38.7164C24.512 38.2824 24.7477 37.732 24.7477 37.0654C24.7477 36.7709 24.6927 36.4841 24.5827 36.2051C24.4884 35.926 24.3392 35.678 24.1349 35.461C23.9306 35.2439 23.6713 35.0734 23.3571 34.9494C23.0585 34.8099 22.7128 34.7401 22.32 34.7401H19.3265V39.3675H22.2728Z" fill="white"/>
<path d="M45.3366 44.8631C44.6273 46.098 43.6676 47.0962 42.4576 47.8577C41.2684 48.6192 39.808 49 38.0765 49C36.9082 49 35.8233 48.8045 34.8219 48.4134C33.8414 48.0018 32.986 47.4358 32.2558 46.7154C31.5256 45.9951 30.9519 45.1512 30.5347 44.1839C30.1383 43.196 29.9401 42.1154 29.9401 40.9423C29.9401 39.8515 30.1383 38.8224 30.5347 37.855C30.9311 36.8671 31.4839 36.013 32.1932 35.2926C32.9026 34.5517 33.7371 33.9651 34.6967 33.5329C35.6773 33.1007 36.7517 32.8846 37.92 32.8846C39.1509 32.8846 40.2461 33.0904 41.2058 33.502C42.1655 33.8931 42.9687 34.4488 43.6154 35.1691C44.2622 35.8689 44.7524 36.7025 45.0862 37.6698C45.42 38.6371 45.5869 39.6868 45.5869 40.8188C45.5869 40.9629 45.5869 41.0864 45.5869 41.1893C45.5661 41.3128 45.5556 41.426 45.5556 41.5289C45.5348 41.6318 45.5243 41.745 45.5243 41.8685H33.977C34.0604 42.4859 34.2273 43.021 34.4777 43.4738C34.7489 43.906 35.0723 44.2765 35.4478 44.5852C35.8442 44.8734 36.2719 45.0895 36.7308 45.2336C37.1898 45.357 37.6592 45.4188 38.139 45.4188C39.0779 45.4188 39.8498 45.213 40.4548 44.8013C41.0806 44.3691 41.5709 43.834 41.9256 43.196L45.3366 44.8631ZM41.6126 38.9973C41.5918 38.7298 41.4979 38.4313 41.331 38.102C41.185 37.7727 40.9555 37.464 40.6425 37.1758C40.3505 36.8877 39.9749 36.651 39.516 36.4658C39.0779 36.2805 38.5459 36.1879 37.92 36.1879C37.0438 36.1879 36.2719 36.4349 35.6043 36.9289C34.9367 37.4228 34.4672 38.1123 34.196 38.9973H41.6126Z" fill="white"/>
<path d="M48.2051 48.506V26.4013H52.3046V48.506H48.2051Z" fill="white"/>
<path d="M62.9219 32.8846C64.1111 32.8846 65.1959 33.0904 66.1765 33.502C67.1779 33.8931 68.0332 34.4488 68.7425 35.1691C69.4727 35.8689 70.036 36.7128 70.4324 37.7007C70.8496 38.6886 71.0583 39.7691 71.0583 40.9423C71.0583 42.1154 70.8496 43.196 70.4324 44.1839C70.036 45.1718 69.4727 46.026 68.7425 46.7463C68.0332 47.4461 67.1779 48.0018 66.1765 48.4134C65.1959 48.8045 64.1111 49 62.9219 49C61.7328 49 60.6375 48.8045 59.6361 48.4134C58.6555 48.0018 57.8002 47.4461 57.07 46.7463C56.3607 46.026 55.7974 45.1718 55.3801 44.1839C54.9838 43.196 54.7856 42.1154 54.7856 40.9423C54.7856 39.7691 54.9838 38.6886 55.3801 37.7007C55.7974 36.7128 56.3607 35.8689 57.07 35.1691C57.8002 34.4488 58.6555 33.8931 59.6361 33.502C60.6375 33.0904 61.7328 32.8846 62.9219 32.8846ZM62.9219 45.2644C63.4435 45.2644 63.9442 45.1718 64.424 44.9866C64.9247 44.7808 65.3628 44.4926 65.7383 44.1221C66.1139 43.7517 66.4059 43.2989 66.6146 42.7638C66.8441 42.2286 66.9588 41.6215 66.9588 40.9423C66.9588 40.2631 66.8441 39.6559 66.6146 39.1208C66.4059 38.5857 66.1139 38.1329 65.7383 37.7624C65.3628 37.3919 64.9247 37.1141 64.424 36.9289C63.9442 36.723 63.4435 36.6201 62.9219 36.6201C62.3795 36.6201 61.8684 36.723 61.3885 36.9289C60.9087 37.1141 60.481 37.3919 60.1055 37.7624C59.73 38.1329 59.4275 38.5857 59.198 39.1208C58.9893 39.6559 58.885 40.2631 58.885 40.9423C58.885 41.6215 58.9893 42.2286 59.198 42.7638C59.4275 43.2989 59.73 43.7517 60.1055 44.1221C60.481 44.4926 60.9087 44.7808 61.3885 44.9866C61.8684 45.1718 62.3795 45.2644 62.9219 45.2644Z" fill="white"/>
<path d="M88.2439 44.647C87.5763 45.923 86.6375 46.9727 85.4274 47.796C84.2383 48.5987 82.7466 49 80.9524 49C79.7633 49 78.668 48.8045 77.6666 48.4134C76.6861 48.0018 75.8307 47.4358 75.1005 46.7154C74.3912 45.9951 73.8279 45.1512 73.4107 44.1839C73.0143 43.196 72.8161 42.1154 72.8161 40.9423C72.8161 39.7691 73.0143 38.6886 73.4107 37.7007C73.8279 36.7128 74.3912 35.8689 75.1005 35.1691C75.8307 34.4488 76.6861 33.8931 77.6666 33.502C78.668 33.0904 79.7633 32.8846 80.9524 32.8846C82.7258 32.8846 84.2174 33.2859 85.4274 34.0886C86.6375 34.8913 87.5241 35.9306 88.0874 37.2067L84.3322 38.7503C83.9775 38.0506 83.5185 37.5257 82.9552 37.1758C82.4128 36.8054 81.7244 36.6201 80.8899 36.6201C80.3474 36.6201 79.8363 36.723 79.3565 36.9289C78.8766 37.1347 78.449 37.4228 78.0734 37.7933C77.7188 38.1638 77.4371 38.6166 77.2285 39.1517C77.0199 39.6868 76.9156 40.2837 76.9156 40.9423C76.9156 41.6009 77.0199 42.1978 77.2285 42.7329C77.4371 43.268 77.7188 43.7208 78.0734 44.0913C78.449 44.4617 78.8766 44.7499 79.3565 44.9557C79.8363 45.1615 80.3474 45.2644 80.8899 45.2644C81.7452 45.2644 82.465 45.0792 83.0491 44.7087C83.6541 44.3177 84.134 43.762 84.4886 43.0416L88.2439 44.647Z" fill="white"/>
<path d="M100.043 46.9007H99.7925C99.3126 47.477 98.7285 47.9709 98.04 48.3826C97.3724 48.7942 96.5066 49 95.4426 49C94.6499 49 93.8988 48.8662 93.1895 48.5987C92.501 48.3517 91.896 48.0018 91.3745 47.549C90.8529 47.0962 90.4461 46.5508 90.154 45.9128C89.8619 45.2747 89.7159 44.5749 89.7159 43.8134C89.7159 43.0313 89.8724 42.3315 90.1853 41.7141C90.4982 41.0761 90.9363 40.5306 91.4996 40.0779C92.0629 39.6251 92.7201 39.2855 93.4711 39.0591C94.243 38.8121 95.0775 38.6886 95.9746 38.6886C96.976 38.6886 97.8001 38.7709 98.4468 38.9356C99.0936 39.0796 99.6256 39.234 100.043 39.3987V38.9356C100.043 38.1329 99.7194 37.4743 99.0727 36.9597C98.426 36.4246 97.6228 36.157 96.6631 36.157C95.2444 36.157 94.0449 36.7436 93.0643 37.9168L90.0914 35.9101C91.7187 33.8931 93.9405 32.8846 96.757 32.8846C99.1353 32.8846 100.95 33.4403 102.202 34.5517C103.454 35.6425 104.08 37.2685 104.08 39.4295V48.506H100.043V46.9007ZM100.043 42.3624C99.563 42.136 99.0623 41.9611 98.5407 41.8376C98.04 41.6935 97.4872 41.6215 96.8821 41.6215C95.9016 41.6215 95.1401 41.8376 94.5977 42.2698C94.0761 42.6814 93.8154 43.196 93.8154 43.8134C93.8154 44.4309 94.0657 44.9248 94.5664 45.2953C95.088 45.6658 95.6826 45.851 96.3502 45.851C96.8926 45.851 97.3933 45.7584 97.8522 45.5732C98.3112 45.3673 98.6972 45.1101 99.0101 44.8013C99.3439 44.472 99.5943 44.1016 99.7612 43.6899C99.9489 43.2577 100.043 42.8152 100.043 42.3624Z" fill="white"/>
<path d="M108.723 36.8362H106.032V33.3785H108.723V28.7477H112.823V33.3785H116.578V36.8362H112.823V42.702C112.823 43.0519 112.854 43.3812 112.917 43.6899C113 43.9781 113.146 44.2251 113.355 44.4309C113.647 44.7602 114.064 44.9248 114.607 44.9248C114.961 44.9248 115.243 44.894 115.452 44.8322C115.66 44.7499 115.858 44.647 116.046 44.5235L117.204 48.0738C116.724 48.3002 116.203 48.4649 115.639 48.5678C115.097 48.6913 114.492 48.753 113.824 48.753C113.052 48.753 112.353 48.6398 111.728 48.4134C111.123 48.1664 110.611 47.8371 110.194 47.4255C109.214 46.4993 108.723 45.1821 108.723 43.4738V36.8362Z" fill="white"/>
<path d="M122.031 31.1866C121.676 31.1866 121.332 31.1248 120.998 31.0013C120.685 30.8573 120.404 30.672 120.153 30.4456C119.924 30.1987 119.736 29.9208 119.59 29.6121C119.465 29.3034 119.402 28.9638 119.402 28.5933C119.402 28.2228 119.465 27.8832 119.59 27.5745C119.736 27.2658 119.924 26.9982 120.153 26.7718C120.404 26.5248 120.685 26.3396 120.998 26.2161C121.332 26.072 121.676 26 122.031 26C122.761 26 123.387 26.2573 123.909 26.7718C124.43 27.2658 124.691 27.8729 124.691 28.5933C124.691 29.3136 124.43 29.9311 123.909 30.4456C123.387 30.9396 122.761 31.1866 122.031 31.1866ZM119.997 48.506V33.3785H124.096V48.506H119.997Z" fill="white"/>
<path d="M134.952 32.8846C136.142 32.8846 137.226 33.0904 138.207 33.502C139.208 33.8931 140.064 34.4488 140.773 35.1691C141.503 35.8689 142.066 36.7128 142.463 37.7007C142.88 38.6886 143.089 39.7691 143.089 40.9423C143.089 42.1154 142.88 43.196 142.463 44.1839C142.066 45.1718 141.503 46.026 140.773 46.7463C140.064 47.4461 139.208 48.0018 138.207 48.4134C137.226 48.8045 136.142 49 134.952 49C133.763 49 132.668 48.8045 131.667 48.4134C130.686 48.0018 129.831 47.4461 129.1 46.7463C128.391 46.026 127.828 45.1718 127.411 44.1839C127.014 43.196 126.816 42.1154 126.816 40.9423C126.816 39.7691 127.014 38.6886 127.411 37.7007C127.828 36.7128 128.391 35.8689 129.1 35.1691C129.831 34.4488 130.686 33.8931 131.667 33.502C132.668 33.0904 133.763 32.8846 134.952 32.8846ZM134.952 45.2644C135.474 45.2644 135.975 45.1718 136.454 44.9866C136.955 44.7808 137.393 44.4926 137.769 44.1221C138.144 43.7517 138.436 43.2989 138.645 42.7638C138.874 42.2286 138.989 41.6215 138.989 40.9423C138.989 40.2631 138.874 39.6559 138.645 39.1208C138.436 38.5857 138.144 38.1329 137.769 37.7624C137.393 37.3919 136.955 37.1141 136.454 36.9289C135.975 36.723 135.474 36.6201 134.952 36.6201C134.41 36.6201 133.899 36.723 133.419 36.9289C132.939 37.1141 132.511 37.3919 132.136 37.7624C131.76 38.1329 131.458 38.5857 131.228 39.1208C131.02 39.6559 130.915 40.2631 130.915 40.9423C130.915 41.6215 131.02 42.2286 131.228 42.7638C131.458 43.2989 131.76 43.7517 132.136 44.1221C132.511 44.4926 132.939 44.7808 133.419 44.9866C133.899 45.1718 134.41 45.2644 134.952 45.2644Z" fill="white"/>
<path d="M149.266 35.3544H149.517C149.996 34.5928 150.643 33.996 151.457 33.5638C152.27 33.111 153.199 32.8846 154.242 32.8846C155.202 32.8846 156.047 33.0389 156.777 33.3477C157.507 33.6564 158.102 34.0989 158.561 34.6752C159.04 35.2309 159.395 35.9101 159.624 36.7128C159.875 37.4949 160 38.3696 160 39.3369V48.506H155.901V39.8309C155.901 38.74 155.65 37.9374 155.149 37.4228C154.67 36.8877 153.96 36.6201 153.022 36.6201C152.458 36.6201 151.958 36.7436 151.519 36.9906C151.102 37.217 150.737 37.536 150.424 37.9477C150.132 38.3387 149.903 38.8121 149.736 39.3678C149.59 39.9029 149.517 40.4792 149.517 41.0966V48.506H145.417V33.3785H149.266V35.3544Z" fill="white"/>
<path d="M208.316 16.161L206.795 20.36H209.889L208.368 16.161H208.316ZM205.482 24H204.156L207.666 14.692H209.018L212.528 24H211.202L210.305 21.478H206.392L205.482 24ZM214.608 14.692V24H213.412V14.692H214.608ZM217.261 14.692V24H216.065V14.692H217.261ZM223.122 15.433C223.122 15.667 223.039 15.8663 222.875 16.031C222.71 16.1957 222.511 16.278 222.277 16.278C222.043 16.278 221.843 16.1957 221.679 16.031C221.514 15.8663 221.432 15.667 221.432 15.433C221.432 15.199 221.514 14.9997 221.679 14.835C221.843 14.6703 222.043 14.588 222.277 14.588C222.511 14.588 222.71 14.6703 222.875 14.835C223.039 14.9997 223.122 15.199 223.122 15.433ZM222.875 17.63V24H221.679V17.63H222.875ZM225.627 24H224.431V17.63H225.575V18.514H225.627C225.809 18.202 226.086 17.942 226.459 17.734C226.84 17.526 227.217 17.422 227.59 17.422C228.058 17.422 228.47 17.5303 228.825 17.747C229.18 17.9637 229.44 18.2627 229.605 18.644C230.134 17.8293 230.866 17.422 231.802 17.422C232.539 17.422 233.106 17.6473 233.505 18.098C233.904 18.5487 234.103 19.19 234.103 20.022V24H232.907V20.204C232.907 19.606 232.799 19.177 232.582 18.917C232.365 18.6483 232.001 18.514 231.49 18.514C231.031 18.514 230.645 18.709 230.333 19.099C230.021 19.489 229.865 19.9483 229.865 20.477V24H228.669V20.204C228.669 19.606 228.561 19.177 228.344 18.917C228.127 18.6483 227.763 18.514 227.252 18.514C226.793 18.514 226.407 18.709 226.095 19.099C225.783 19.489 225.627 19.9483 225.627 20.477V24ZM236.697 24H235.501V17.63H236.645V18.514H236.697C236.879 18.202 237.157 17.942 237.529 17.734C237.911 17.526 238.288 17.422 238.66 17.422C239.128 17.422 239.54 17.5303 239.895 17.747C240.251 17.9637 240.511 18.2627 240.675 18.644C241.204 17.8293 241.936 17.422 242.872 17.422C243.609 17.422 244.177 17.6473 244.575 18.098C244.974 18.5487 245.173 19.19 245.173 20.022V24H243.977V20.204C243.977 19.606 243.869 19.177 243.652 18.917C243.436 18.6483 243.072 18.514 242.56 18.514C242.101 18.514 241.715 18.709 241.403 19.099C241.091 19.489 240.935 19.9483 240.935 20.477V24H239.739V20.204C239.739 19.606 239.631 19.177 239.414 18.917C239.198 18.6483 238.834 18.514 238.322 18.514C237.863 18.514 237.477 18.709 237.165 19.099C236.853 19.489 236.697 19.9483 236.697 20.477V24ZM248.119 15.433C248.119 15.667 248.036 15.8663 247.872 16.031C247.707 16.1957 247.508 16.278 247.274 16.278C247.04 16.278 246.84 16.1957 246.676 16.031C246.511 15.8663 246.429 15.667 246.429 15.433C246.429 15.199 246.511 14.9997 246.676 14.835C246.84 14.6703 247.04 14.588 247.274 14.588C247.508 14.588 247.707 14.6703 247.872 14.835C248.036 14.9997 248.119 15.199 248.119 15.433ZM247.872 17.63V24H246.676V17.63H247.872ZM252.225 23.116C252.814 23.116 253.295 22.9037 253.668 22.479C254.058 22.0543 254.253 21.4997 254.253 20.815C254.253 20.1477 254.058 19.5973 253.668 19.164C253.286 18.7307 252.805 18.514 252.225 18.514C251.653 18.514 251.172 18.7307 250.782 19.164C250.392 19.5973 250.197 20.1477 250.197 20.815C250.197 21.491 250.392 22.0413 250.782 22.466C251.172 22.8993 251.653 23.116 252.225 23.116ZM252.186 27.016C251.83 27.016 251.497 26.9683 251.185 26.873C250.873 26.7863 250.587 26.6607 250.327 26.496C250.075 26.3313 249.859 26.1363 249.677 25.911C249.495 25.6857 249.356 25.4343 249.261 25.157L250.392 24.689C250.522 25.0617 250.747 25.3607 251.068 25.586C251.388 25.8113 251.761 25.924 252.186 25.924C252.836 25.924 253.343 25.729 253.707 25.339C254.071 24.949 254.253 24.4117 254.253 23.727V23.116H254.201C253.975 23.454 253.668 23.7227 253.278 23.922C252.896 24.1127 252.48 24.208 252.03 24.208C251.198 24.208 250.483 23.883 249.885 23.233C249.295 22.5657 249.001 21.7597 249.001 20.815C249.001 19.8703 249.295 19.0687 249.885 18.41C250.483 17.7513 251.198 17.422 252.03 17.422C252.48 17.422 252.896 17.5217 253.278 17.721C253.668 17.9117 253.975 18.176 254.201 18.514H254.253V17.63H255.397V23.727C255.397 24.7497 255.106 25.5513 254.526 26.132C253.936 26.7213 253.156 27.016 252.186 27.016ZM258.051 24H256.855V17.63H257.999V18.67H258.051C258.172 18.332 258.419 18.046 258.792 17.812C259.173 17.5693 259.546 17.448 259.91 17.448C260.257 17.448 260.551 17.5 260.794 17.604L260.43 18.761C260.283 18.7003 260.049 18.67 259.728 18.67C259.277 18.67 258.883 18.852 258.545 19.216C258.216 19.58 258.051 20.0047 258.051 20.49V24ZM262.195 22.05C262.195 22.362 262.325 22.622 262.585 22.83C262.853 23.038 263.165 23.142 263.521 23.142C264.023 23.142 264.47 22.9557 264.86 22.583C265.258 22.2103 265.458 21.7727 265.458 21.27C265.085 20.9753 264.565 20.828 263.898 20.828C263.412 20.828 263.005 20.945 262.676 21.179C262.355 21.413 262.195 21.7033 262.195 22.05ZM263.742 17.422C264.626 17.422 265.323 17.6603 265.835 18.137C266.346 18.605 266.602 19.2507 266.602 20.074V24H265.458V23.116H265.406C264.912 23.844 264.253 24.208 263.43 24.208C262.728 24.208 262.138 24 261.662 23.584C261.194 23.168 260.96 22.648 260.96 22.024C260.96 21.3653 261.207 20.841 261.701 20.451C262.203 20.061 262.871 19.866 263.703 19.866C264.413 19.866 264.998 19.996 265.458 20.256V19.983C265.458 19.567 265.293 19.216 264.964 18.93C264.634 18.6353 264.249 18.488 263.807 18.488C263.139 18.488 262.611 18.7697 262.221 19.333L261.168 18.67C261.748 17.838 262.606 17.422 263.742 17.422ZM270.346 24.104C269.826 24.104 269.392 23.9437 269.046 23.623C268.708 23.3023 268.534 22.856 268.526 22.284V18.722H267.408V17.63H268.526V15.68H269.722V17.63H271.282V18.722H269.722V21.894C269.722 22.3187 269.804 22.609 269.969 22.765C270.133 22.9123 270.32 22.986 270.528 22.986C270.623 22.986 270.714 22.9773 270.801 22.96C270.896 22.934 270.983 22.9037 271.061 22.869L271.438 23.935C271.126 24.0477 270.762 24.104 270.346 24.104ZM274.03 15.433C274.03 15.667 273.948 15.8663 273.783 16.031C273.618 16.1957 273.419 16.278 273.185 16.278C272.951 16.278 272.752 16.1957 272.587 16.031C272.422 15.8663 272.34 15.667 272.34 15.433C272.34 15.199 272.422 14.9997 272.587 14.835C272.752 14.6703 272.951 14.588 273.185 14.588C273.419 14.588 273.618 14.6703 273.783 14.835C273.948 14.9997 274.03 15.199 274.03 15.433ZM273.783 17.63V24H272.587V17.63H273.783ZM274.912 20.815C274.912 19.8357 275.22 19.0253 275.835 18.384C276.459 17.7427 277.243 17.422 278.188 17.422C279.133 17.422 279.913 17.7427 280.528 18.384C281.152 19.0253 281.464 19.8357 281.464 20.815C281.464 21.803 281.152 22.6133 280.528 23.246C279.913 23.8873 279.133 24.208 278.188 24.208C277.243 24.208 276.459 23.8873 275.835 23.246C275.22 22.6047 274.912 21.7943 274.912 20.815ZM276.108 20.815C276.108 21.4997 276.307 22.0543 276.706 22.479C277.105 22.9037 277.599 23.116 278.188 23.116C278.777 23.116 279.271 22.9037 279.67 22.479C280.069 22.0543 280.268 21.4997 280.268 20.815C280.268 20.139 280.069 19.5887 279.67 19.164C279.263 18.7307 278.769 18.514 278.188 18.514C277.607 18.514 277.113 18.7307 276.706 19.164C276.307 19.5887 276.108 20.139 276.108 20.815ZM282.423 17.63H283.567V18.514H283.619C283.801 18.202 284.079 17.942 284.451 17.734C284.833 17.526 285.227 17.422 285.634 17.422C286.414 17.422 287.012 17.6473 287.428 18.098C287.853 18.54 288.065 19.1727 288.065 19.996V24H286.869V20.074C286.843 19.034 286.319 18.514 285.296 18.514C284.82 18.514 284.421 18.709 284.1 19.099C283.78 19.4803 283.619 19.9397 283.619 20.477V24H282.423V17.63ZM293.197 22.05C293.197 22.362 293.327 22.622 293.587 22.83C293.855 23.038 294.167 23.142 294.523 23.142C295.025 23.142 295.472 22.9557 295.862 22.583C296.26 22.2103 296.46 21.7727 296.46 21.27C296.087 20.9753 295.567 20.828 294.9 20.828C294.414 20.828 294.007 20.945 293.678 21.179C293.357 21.413 293.197 21.7033 293.197 22.05ZM294.744 17.422C295.628 17.422 296.325 17.6603 296.837 18.137C297.348 18.605 297.604 19.2507 297.604 20.074V24H296.46V23.116H296.408C295.914 23.844 295.255 24.208 294.432 24.208C293.73 24.208 293.14 24 292.664 23.584C292.196 23.168 291.962 22.648 291.962 22.024C291.962 21.3653 292.209 20.841 292.703 20.451C293.205 20.061 293.873 19.866 294.705 19.866C295.415 19.866 296 19.996 296.46 20.256V19.983C296.46 19.567 296.295 19.216 295.966 18.93C295.636 18.6353 295.251 18.488 294.809 18.488C294.141 18.488 293.613 18.7697 293.223 19.333L292.17 18.67C292.75 17.838 293.608 17.422 294.744 17.422ZM301.749 23.116C302.338 23.116 302.819 22.9037 303.192 22.479C303.582 22.0543 303.777 21.4997 303.777 20.815C303.777 20.1477 303.582 19.5973 303.192 19.164C302.811 18.7307 302.33 18.514 301.749 18.514C301.177 18.514 300.696 18.7307 300.306 19.164C299.916 19.5973 299.721 20.1477 299.721 20.815C299.721 21.491 299.916 22.0413 300.306 22.466C300.696 22.8993 301.177 23.116 301.749 23.116ZM301.554 24.208C300.722 24.208 300.007 23.8787 299.409 23.22C298.82 22.5527 298.525 21.751 298.525 20.815C298.525 19.879 298.82 19.0773 299.409 18.41C300.007 17.7513 300.722 17.422 301.554 17.422C302.022 17.422 302.447 17.5217 302.828 17.721C303.218 17.9203 303.517 18.1847 303.725 18.514H303.777L303.725 17.63V14.692H304.921V24H303.777V23.116H303.725C303.517 23.4453 303.218 23.7097 302.828 23.909C302.447 24.1083 302.022 24.208 301.554 24.208ZM309.473 24H308.277L305.703 17.63H307.003L308.875 22.57H308.901L310.799 17.63H312.073L309.473 24ZM314.401 15.433C314.401 15.667 314.319 15.8663 314.154 16.031C313.989 16.1957 313.79 16.278 313.556 16.278C313.322 16.278 313.123 16.1957 312.958 16.031C312.793 15.8663 312.711 15.667 312.711 15.433C312.711 15.199 312.793 14.9997 312.958 14.835C313.123 14.6703 313.322 14.588 313.556 14.588C313.79 14.588 313.989 14.6703 314.154 14.835C314.319 14.9997 314.401 15.199 314.401 15.433ZM314.154 17.63V24H312.958V17.63H314.154ZM318.559 24.208C317.614 24.208 316.83 23.8873 316.206 23.246C315.591 22.5873 315.283 21.777 315.283 20.815C315.283 19.8357 315.591 19.0253 316.206 18.384C316.83 17.7427 317.614 17.422 318.559 17.422C319.209 17.422 319.777 17.5867 320.262 17.916C320.747 18.2367 321.111 18.683 321.354 19.255L320.262 19.71C319.924 18.9127 319.33 18.514 318.481 18.514C317.935 18.514 317.463 18.735 317.064 19.177C316.674 19.619 316.479 20.165 316.479 20.815C316.479 21.465 316.674 22.011 317.064 22.453C317.463 22.895 317.935 23.116 318.481 23.116C319.356 23.116 319.972 22.7173 320.327 21.92L321.393 22.375C321.159 22.947 320.791 23.3977 320.288 23.727C319.794 24.0477 319.218 24.208 318.559 24.208ZM325.235 24.208C324.299 24.208 323.528 23.8873 322.921 23.246C322.315 22.6047 322.011 21.7943 322.011 20.815C322.011 19.8443 322.306 19.0383 322.895 18.397C323.485 17.747 324.239 17.422 325.157 17.422C326.102 17.422 326.852 17.7297 327.406 18.345C327.97 18.9517 328.251 19.8053 328.251 20.906L328.238 21.036H323.233C323.251 21.66 323.459 22.1627 323.857 22.544C324.256 22.9253 324.733 23.116 325.287 23.116C326.05 23.116 326.648 22.7347 327.081 21.972L328.147 22.492C327.861 23.0293 327.463 23.4497 326.951 23.753C326.449 24.0563 325.877 24.208 325.235 24.208ZM323.324 20.048H326.977C326.943 19.606 326.761 19.242 326.431 18.956C326.111 18.6613 325.677 18.514 325.131 18.514C324.681 18.514 324.291 18.6527 323.961 18.93C323.641 19.2073 323.428 19.58 323.324 20.048ZM333.749 15.433C333.749 15.667 333.666 15.8663 333.502 16.031C333.337 16.1957 333.138 16.278 332.904 16.278C332.67 16.278 332.47 16.1957 332.306 16.031C332.141 15.8663 332.059 15.667 332.059 15.433C332.059 15.199 332.141 14.9997 332.306 14.835C332.47 14.6703 332.67 14.588 332.904 14.588C333.138 14.588 333.337 14.6703 333.502 14.835C333.666 14.9997 333.749 15.199 333.749 15.433ZM333.502 17.63V24H332.306V17.63H333.502ZM339.933 22.232C339.933 22.7867 339.69 23.2547 339.205 23.636C338.72 24.0173 338.109 24.208 337.372 24.208C336.731 24.208 336.167 24.0433 335.682 23.714C335.197 23.376 334.85 22.934 334.642 22.388L335.708 21.933C335.864 22.3143 336.089 22.6133 336.384 22.83C336.687 23.038 337.017 23.142 337.372 23.142C337.753 23.142 338.07 23.0597 338.321 22.895C338.581 22.7303 338.711 22.5353 338.711 22.31C338.711 21.9027 338.399 21.6037 337.775 21.413L336.683 21.14C335.444 20.828 334.824 20.23 334.824 19.346C334.824 18.7653 335.058 18.3017 335.526 17.955C336.003 17.5997 336.609 17.422 337.346 17.422C337.909 17.422 338.416 17.5563 338.867 17.825C339.326 18.0937 339.647 18.4533 339.829 18.904L338.763 19.346C338.642 19.0773 338.442 18.8693 338.165 18.722C337.896 18.566 337.593 18.488 337.255 18.488C336.943 18.488 336.661 18.566 336.41 18.722C336.167 18.878 336.046 19.0687 336.046 19.294C336.046 19.658 336.388 19.918 337.073 20.074L338.035 20.321C339.3 20.633 339.933 21.27 339.933 22.232ZM207.848 46.116C208.42 46.116 208.901 45.8993 209.291 45.466C209.681 45.0413 209.876 44.491 209.876 43.815C209.876 43.1477 209.681 42.5973 209.291 42.164C208.901 41.7307 208.42 41.514 207.848 41.514C207.267 41.514 206.782 41.7307 206.392 42.164C206.011 42.5973 205.82 43.1477 205.82 43.815C205.82 44.491 206.011 45.0457 206.392 45.479C206.782 45.9037 207.267 46.116 207.848 46.116ZM208.043 47.208C207.575 47.208 207.146 47.1083 206.756 46.909C206.375 46.7097 206.08 46.4453 205.872 46.116H205.82L205.872 47V49.808H204.676V40.63H205.82V41.514H205.872C206.08 41.1847 206.375 40.9203 206.756 40.721C207.146 40.5217 207.575 40.422 208.043 40.422C208.884 40.422 209.594 40.7513 210.175 41.41C210.773 42.0773 211.072 42.879 211.072 43.815C211.072 44.7597 210.773 45.5613 210.175 46.22C209.594 46.8787 208.884 47.208 208.043 47.208ZM213.3 47H212.104V40.63H213.248V41.67H213.3C213.421 41.332 213.668 41.046 214.041 40.812C214.422 40.5693 214.795 40.448 215.159 40.448C215.506 40.448 215.8 40.5 216.043 40.604L215.679 41.761C215.532 41.7003 215.298 41.67 214.977 41.67C214.526 41.67 214.132 41.852 213.794 42.216C213.465 42.58 213.3 43.0047 213.3 43.49V47ZM216.069 43.815C216.069 42.8357 216.377 42.0253 216.992 41.384C217.616 40.7427 218.4 40.422 219.345 40.422C220.29 40.422 221.07 40.7427 221.685 41.384C222.309 42.0253 222.621 42.8357 222.621 43.815C222.621 44.803 222.309 45.6133 221.685 46.246C221.07 46.8873 220.29 47.208 219.345 47.208C218.4 47.208 217.616 46.8873 216.992 46.246C216.377 45.6047 216.069 44.7943 216.069 43.815ZM217.265 43.815C217.265 44.4997 217.464 45.0543 217.863 45.479C218.262 45.9037 218.756 46.116 219.345 46.116C219.934 46.116 220.428 45.9037 220.827 45.479C221.226 45.0543 221.425 44.4997 221.425 43.815C221.425 43.139 221.226 42.5887 220.827 42.164C220.42 41.7307 219.926 41.514 219.345 41.514C218.764 41.514 218.27 41.7307 217.863 42.164C217.464 42.5887 217.265 43.139 217.265 43.815ZM226.675 47H225.479L222.905 40.63H224.205L226.077 45.57H226.103L228.001 40.63H229.275L226.675 47ZM231.602 38.433C231.602 38.667 231.52 38.8663 231.355 39.031C231.19 39.1957 230.991 39.278 230.757 39.278C230.523 39.278 230.324 39.1957 230.159 39.031C229.994 38.8663 229.912 38.667 229.912 38.433C229.912 38.199 229.994 37.9997 230.159 37.835C230.324 37.6703 230.523 37.588 230.757 37.588C230.991 37.588 231.19 37.6703 231.355 37.835C231.52 37.9997 231.602 38.199 231.602 38.433ZM231.355 40.63V47H230.159V40.63H231.355ZM235.708 46.116C236.297 46.116 236.778 45.9037 237.151 45.479C237.541 45.0543 237.736 44.4997 237.736 43.815C237.736 43.1477 237.541 42.5973 237.151 42.164C236.77 41.7307 236.289 41.514 235.708 41.514C235.136 41.514 234.655 41.7307 234.265 42.164C233.875 42.5973 233.68 43.1477 233.68 43.815C233.68 44.491 233.875 45.0413 234.265 45.466C234.655 45.8993 235.136 46.116 235.708 46.116ZM235.513 47.208C234.681 47.208 233.966 46.8787 233.368 46.22C232.779 45.5527 232.484 44.751 232.484 43.815C232.484 42.879 232.779 42.0773 233.368 41.41C233.966 40.7513 234.681 40.422 235.513 40.422C235.981 40.422 236.406 40.5217 236.787 40.721C237.177 40.9203 237.476 41.1847 237.684 41.514H237.736L237.684 40.63V37.692H238.88V47H237.736V46.116H237.684C237.476 46.4453 237.177 46.7097 236.787 46.909C236.406 47.1083 235.981 47.208 235.513 47.208ZM243.135 47.208C242.199 47.208 241.428 46.8873 240.821 46.246C240.214 45.6047 239.911 44.7943 239.911 43.815C239.911 42.8443 240.206 42.0383 240.795 41.397C241.384 40.747 242.138 40.422 243.057 40.422C244.002 40.422 244.751 40.7297 245.306 41.345C245.869 41.9517 246.151 42.8053 246.151 43.906L246.138 44.036H241.133C241.15 44.66 241.358 45.1627 241.757 45.544C242.156 45.9253 242.632 46.116 243.187 46.116C243.95 46.116 244.548 45.7347 244.981 44.972L246.047 45.492C245.761 46.0293 245.362 46.4497 244.851 46.753C244.348 47.0563 243.776 47.208 243.135 47.208ZM241.224 43.048H244.877C244.842 42.606 244.66 42.242 244.331 41.956C244.01 41.6613 243.577 41.514 243.031 41.514C242.58 41.514 242.19 41.6527 241.861 41.93C241.54 42.2073 241.328 42.58 241.224 43.048ZM250.168 46.116C250.757 46.116 251.238 45.9037 251.611 45.479C252.001 45.0543 252.196 44.4997 252.196 43.815C252.196 43.1477 252.001 42.5973 251.611 42.164C251.23 41.7307 250.749 41.514 250.168 41.514C249.596 41.514 249.115 41.7307 248.725 42.164C248.335 42.5973 248.14 43.1477 248.14 43.815C248.14 44.491 248.335 45.0413 248.725 45.466C249.115 45.8993 249.596 46.116 250.168 46.116ZM249.973 47.208C249.141 47.208 248.426 46.8787 247.828 46.22C247.239 45.5527 246.944 44.751 246.944 43.815C246.944 42.879 247.239 42.0773 247.828 41.41C248.426 40.7513 249.141 40.422 249.973 40.422C250.441 40.422 250.866 40.5217 251.247 40.721C251.637 40.9203 251.936 41.1847 252.144 41.514H252.196L252.144 40.63V37.692H253.34V47H252.196V46.116H252.144C251.936 46.4453 251.637 46.7097 251.247 46.909C250.866 47.1083 250.441 47.208 249.973 47.208ZM261.022 47.208C260.554 47.208 260.125 47.1083 259.735 46.909C259.353 46.7097 259.059 46.4453 258.851 46.116H258.799V47H257.655V37.692H258.851V40.63L258.799 41.514H258.851C259.059 41.1847 259.353 40.9203 259.735 40.721C260.125 40.5217 260.554 40.422 261.022 40.422C261.862 40.422 262.573 40.7513 263.154 41.41C263.752 42.0773 264.051 42.879 264.051 43.815C264.051 44.7597 263.752 45.5613 263.154 46.22C262.573 46.8787 261.862 47.208 261.022 47.208ZM260.827 46.116C261.399 46.116 261.88 45.8993 262.27 45.466C262.66 45.0413 262.855 44.491 262.855 43.815C262.855 43.1477 262.66 42.5973 262.27 42.164C261.88 41.7307 261.399 41.514 260.827 41.514C260.246 41.514 259.761 41.7307 259.371 42.164C258.989 42.5973 258.799 43.1477 258.799 43.815C258.799 44.491 258.989 45.0457 259.371 45.479C259.761 45.9037 260.246 46.116 260.827 46.116ZM270.585 40.63L266.594 49.808H265.359L266.841 46.597L264.215 40.63H265.515L267.413 45.206H267.439L269.285 40.63H270.585ZM283.289 42.346C283.289 43.724 282.83 44.8767 281.911 45.804C280.984 46.74 279.849 47.208 278.505 47.208C277.153 47.208 276.018 46.74 275.099 45.804C274.181 44.8767 273.721 43.724 273.721 42.346C273.721 40.968 274.181 39.8153 275.099 38.888C276.018 37.952 277.153 37.484 278.505 37.484C279.857 37.484 280.993 37.9563 281.911 38.901C282.83 39.8283 283.289 40.9767 283.289 42.346ZM274.943 42.346C274.943 43.4207 275.281 44.309 275.957 45.011C276.642 45.713 277.491 46.064 278.505 46.064C279.519 46.064 280.364 45.713 281.04 45.011C281.725 44.3177 282.067 43.4293 282.067 42.346C282.067 41.2627 281.725 40.3743 281.04 39.681C280.364 38.979 279.519 38.628 278.505 38.628C277.491 38.628 276.642 38.979 275.957 39.681C275.281 40.383 274.943 41.2713 274.943 42.346ZM285.897 47H284.701V37.692H285.897V47ZM293.519 44.517C293.519 45.3317 293.22 45.986 292.622 46.48C292.015 46.9653 291.279 47.208 290.412 47.208C289.641 47.208 288.96 46.9827 288.371 46.532C287.782 46.0813 287.374 45.466 287.149 44.686L288.293 44.218C288.371 44.4953 288.479 44.7467 288.618 44.972C288.757 45.1973 288.917 45.3923 289.099 45.557C289.29 45.713 289.498 45.8387 289.723 45.934C289.948 46.0207 290.187 46.064 290.438 46.064C290.984 46.064 291.43 45.9253 291.777 45.648C292.124 45.362 292.297 44.985 292.297 44.517C292.297 44.127 292.154 43.7933 291.868 43.516C291.599 43.2473 291.097 42.9873 290.36 42.736C289.615 42.4673 289.151 42.2853 288.969 42.19C287.981 41.6873 287.487 40.9463 287.487 39.967C287.487 39.2823 287.76 38.6973 288.306 38.212C288.861 37.7267 289.541 37.484 290.347 37.484C291.058 37.484 291.673 37.666 292.193 38.03C292.713 38.3853 293.06 38.8317 293.233 39.369L292.115 39.837C292.011 39.4903 291.803 39.2043 291.491 38.979C291.188 38.745 290.815 38.628 290.373 38.628C289.905 38.628 289.511 38.758 289.19 39.018C288.869 39.2607 288.709 39.577 288.709 39.967C288.709 40.2877 288.835 40.565 289.086 40.799C289.363 41.033 289.966 41.3103 290.893 41.631C291.838 41.9517 292.509 42.346 292.908 42.814C293.315 43.2733 293.519 43.841 293.519 44.517ZM299.339 47.208C297.961 47.208 296.809 46.7443 295.881 45.817C294.963 44.8897 294.503 43.7327 294.503 42.346C294.503 40.9593 294.963 39.8067 295.881 38.888C296.8 37.952 297.953 37.484 299.339 37.484C300.743 37.484 301.883 37.991 302.758 39.005L301.9 39.837C301.233 39.031 300.379 38.628 299.339 38.628C298.308 38.628 297.446 38.9747 296.752 39.668C296.068 40.3527 295.725 41.2453 295.725 42.346C295.725 43.4467 296.068 44.3393 296.752 45.024C297.446 45.7173 298.308 46.064 299.339 46.064C300.423 46.064 301.363 45.609 302.16 44.699L303.031 45.544C302.589 46.0727 302.048 46.4843 301.406 46.779C300.765 47.065 300.076 47.208 299.339 47.208ZM308.274 47H307.078V40.63H308.222V41.67H308.274C308.395 41.332 308.642 41.046 309.015 40.812C309.396 40.5693 309.769 40.448 310.133 40.448C310.479 40.448 310.774 40.5 311.017 40.604L310.653 41.761C310.505 41.7003 310.271 41.67 309.951 41.67C309.5 41.67 309.106 41.852 308.768 42.216C308.438 42.58 308.274 43.0047 308.274 43.49V47ZM314.267 47.208C313.331 47.208 312.559 46.8873 311.953 46.246C311.346 45.6047 311.043 44.7943 311.043 43.815C311.043 42.8443 311.337 42.0383 311.927 41.397C312.516 40.747 313.27 40.422 314.189 40.422C315.133 40.422 315.883 40.7297 316.438 41.345C317.001 41.9517 317.283 42.8053 317.283 43.906L317.27 44.036H312.265C312.282 44.66 312.49 45.1627 312.889 45.544C313.287 45.9253 313.764 46.116 314.319 46.116C315.081 46.116 315.679 45.7347 316.113 44.972L317.179 45.492C316.893 46.0293 316.494 46.4497 315.983 46.753C315.48 47.0563 314.908 47.208 314.267 47.208ZM312.356 43.048H316.009C315.974 42.606 315.792 42.242 315.463 41.956C315.142 41.6613 314.709 41.514 314.163 41.514C313.712 41.514 313.322 41.6527 312.993 41.93C312.672 42.2073 312.46 42.58 312.356 43.048ZM321.3 46.116C321.889 46.116 322.37 45.9037 322.743 45.479C323.133 45.0543 323.328 44.4997 323.328 43.815C323.328 43.1477 323.133 42.5973 322.743 42.164C322.362 41.7307 321.881 41.514 321.3 41.514C320.728 41.514 320.247 41.7307 319.857 42.164C319.467 42.5973 319.272 43.1477 319.272 43.815C319.272 44.491 319.467 45.0413 319.857 45.466C320.247 45.8993 320.728 46.116 321.3 46.116ZM321.261 50.016C320.906 50.016 320.572 49.9683 320.26 49.873C319.948 49.7863 319.662 49.6607 319.402 49.496C319.151 49.3313 318.934 49.1363 318.752 48.911C318.57 48.6857 318.431 48.4343 318.336 48.157L319.467 47.689C319.597 48.0617 319.822 48.3607 320.143 48.586C320.464 48.8113 320.836 48.924 321.261 48.924C321.911 48.924 322.418 48.729 322.782 48.339C323.146 47.949 323.328 47.4117 323.328 46.727V46.116H323.276C323.051 46.454 322.743 46.7227 322.353 46.922C321.972 47.1127 321.556 47.208 321.105 47.208C320.273 47.208 319.558 46.883 318.96 46.233C318.371 45.5657 318.076 44.7597 318.076 43.815C318.076 42.8703 318.371 42.0687 318.96 41.41C319.558 40.7513 320.273 40.422 321.105 40.422C321.556 40.422 321.972 40.5217 322.353 40.721C322.743 40.9117 323.051 41.176 323.276 41.514H323.328V40.63H324.472V46.727C324.472 47.7497 324.182 48.5513 323.601 49.132C323.012 49.7213 322.232 50.016 321.261 50.016ZM331.457 47H330.313V46.116H330.261C330.079 46.428 329.797 46.688 329.416 46.896C329.043 47.104 328.653 47.208 328.246 47.208C327.466 47.208 326.863 46.987 326.439 46.545C326.023 46.0943 325.815 45.4573 325.815 44.634V40.63H327.011V44.556C327.037 45.596 327.561 46.116 328.584 46.116C329.06 46.116 329.459 45.9253 329.78 45.544C330.1 45.154 330.261 44.6903 330.261 44.153V40.63H331.457V47ZM334.109 37.692V47H332.913V37.692H334.109ZM336.373 45.05C336.373 45.362 336.503 45.622 336.763 45.83C337.032 46.038 337.344 46.142 337.699 46.142C338.202 46.142 338.648 45.9557 339.038 45.583C339.437 45.2103 339.636 44.7727 339.636 44.27C339.264 43.9753 338.744 43.828 338.076 43.828C337.591 43.828 337.184 43.945 336.854 44.179C336.534 44.413 336.373 44.7033 336.373 45.05ZM337.92 40.422C338.804 40.422 339.502 40.6603 340.013 41.137C340.525 41.605 340.78 42.2507 340.78 43.074V47H339.636V46.116H339.584C339.09 46.844 338.432 47.208 337.608 47.208C336.906 47.208 336.317 47 335.84 46.584C335.372 46.168 335.138 45.648 335.138 45.024C335.138 44.3653 335.385 43.841 335.879 43.451C336.382 43.061 337.049 42.866 337.881 42.866C338.592 42.866 339.177 42.996 339.636 43.256V42.983C339.636 42.567 339.472 42.216 339.142 41.93C338.813 41.6353 338.427 41.488 337.985 41.488C337.318 41.488 336.789 41.7697 336.399 42.333L335.346 41.67C335.927 40.838 336.785 40.422 337.92 40.422ZM344.524 47.104C344.004 47.104 343.571 46.9437 343.224 46.623C342.886 46.3023 342.713 45.856 342.704 45.284V41.722H341.586V40.63H342.704V38.68H343.9V40.63H345.46V41.722H343.9V44.894C343.9 45.3187 343.983 45.609 344.147 45.765C344.312 45.9123 344.498 45.986 344.706 45.986C344.802 45.986 344.893 45.9773 344.979 45.96C345.075 45.934 345.161 45.9037 345.239 45.869L345.616 46.935C345.304 47.0477 344.94 47.104 344.524 47.104ZM349.395 47.208C348.459 47.208 347.687 46.8873 347.081 46.246C346.474 45.6047 346.171 44.7943 346.171 43.815C346.171 42.8443 346.465 42.0383 347.055 41.397C347.644 40.747 348.398 40.422 349.317 40.422C350.261 40.422 351.011 40.7297 351.566 41.345C352.129 41.9517 352.411 42.8053 352.411 43.906L352.398 44.036H347.393C347.41 44.66 347.618 45.1627 348.017 45.544C348.415 45.9253 348.892 46.116 349.447 46.116C350.209 46.116 350.807 45.7347 351.241 44.972L352.307 45.492C352.021 46.0293 351.622 46.4497 351.111 46.753C350.608 47.0563 350.036 47.208 349.395 47.208ZM347.484 43.048H351.137C351.102 42.606 350.92 42.242 350.591 41.956C350.27 41.6613 349.837 41.514 349.291 41.514C348.84 41.514 348.45 41.6527 348.121 41.93C347.8 42.2073 347.588 42.58 347.484 43.048ZM356.428 46.116C357.017 46.116 357.498 45.9037 357.871 45.479C358.261 45.0543 358.456 44.4997 358.456 43.815C358.456 43.1477 358.261 42.5973 357.871 42.164C357.49 41.7307 357.009 41.514 356.428 41.514C355.856 41.514 355.375 41.7307 354.985 42.164C354.595 42.5973 354.4 43.1477 354.4 43.815C354.4 44.491 354.595 45.0413 354.985 45.466C355.375 45.8993 355.856 46.116 356.428 46.116ZM356.233 47.208C355.401 47.208 354.686 46.8787 354.088 46.22C353.499 45.5527 353.204 44.751 353.204 43.815C353.204 42.879 353.499 42.0773 354.088 41.41C354.686 40.7513 355.401 40.422 356.233 40.422C356.701 40.422 357.126 40.5217 357.507 40.721C357.897 40.9203 358.196 41.1847 358.404 41.514H358.456L358.404 40.63V37.692H359.6V47H358.456V46.116H358.404C358.196 46.4453 357.897 46.7097 357.507 46.909C357.126 47.1083 356.701 47.208 356.233 47.208ZM207.848 69.116C208.42 69.116 208.901 68.8993 209.291 68.466C209.681 68.0413 209.876 67.491 209.876 66.815C209.876 66.1477 209.681 65.5973 209.291 65.164C208.901 64.7307 208.42 64.514 207.848 64.514C207.267 64.514 206.782 64.7307 206.392 65.164C206.011 65.5973 205.82 66.1477 205.82 66.815C205.82 67.491 206.011 68.0457 206.392 68.479C206.782 68.9037 207.267 69.116 207.848 69.116ZM208.043 70.208C207.575 70.208 207.146 70.1083 206.756 69.909C206.375 69.7097 206.08 69.4453 205.872 69.116H205.82L205.872 70V72.808H204.676V63.63H205.82V64.514H205.872C206.08 64.1847 206.375 63.9203 206.756 63.721C207.146 63.5217 207.575 63.422 208.043 63.422C208.884 63.422 209.594 63.7513 210.175 64.41C210.773 65.0773 211.072 65.879 211.072 66.815C211.072 67.7597 210.773 68.5613 210.175 69.22C209.594 69.8787 208.884 70.208 208.043 70.208ZM213.038 68.05C213.038 68.362 213.168 68.622 213.428 68.83C213.697 69.038 214.009 69.142 214.364 69.142C214.867 69.142 215.313 68.9557 215.703 68.583C216.102 68.2103 216.301 67.7727 216.301 67.27C215.929 66.9753 215.409 66.828 214.741 66.828C214.256 66.828 213.849 66.945 213.519 67.179C213.199 67.413 213.038 67.7033 213.038 68.05ZM214.585 63.422C215.469 63.422 216.167 63.6603 216.678 64.137C217.19 64.605 217.445 65.2507 217.445 66.074V70H216.301V69.116H216.249C215.755 69.844 215.097 70.208 214.273 70.208C213.571 70.208 212.982 70 212.505 69.584C212.037 69.168 211.803 68.648 211.803 68.024C211.803 67.3653 212.05 66.841 212.544 66.451C213.047 66.061 213.714 65.866 214.546 65.866C215.257 65.866 215.842 65.996 216.301 66.256V65.983C216.301 65.567 216.137 65.216 215.807 64.93C215.478 64.6353 215.092 64.488 214.65 64.488C213.983 64.488 213.454 64.7697 213.064 65.333L212.011 64.67C212.592 63.838 213.45 63.422 214.585 63.422ZM226.256 70.104C225.736 70.104 225.303 69.9437 224.956 69.623C224.618 69.3023 224.445 68.856 224.436 68.284V64.722H223.318V63.63H224.436V61.68H225.632V63.63H227.192V64.722H225.632V67.894C225.632 68.3187 225.715 68.609 225.879 68.765C226.044 68.9123 226.23 68.986 226.438 68.986C226.534 68.986 226.625 68.9773 226.711 68.96C226.807 68.934 226.893 68.9037 226.971 68.869L227.348 69.935C227.036 70.0477 226.672 70.104 226.256 70.104ZM218.794 63.63H219.938V64.67H219.99C220.346 63.8553 221.078 63.448 222.187 63.448L222.434 63.474V64.722L221.901 64.67C221.347 64.67 220.887 64.8433 220.523 65.19C220.168 65.528 219.99 65.9613 219.99 66.49V70H218.794V63.63ZM228.405 63.63H229.549V64.514H229.601C229.783 64.202 230.06 63.942 230.433 63.734C230.814 63.526 231.208 63.422 231.616 63.422C232.396 63.422 232.994 63.6473 233.41 64.098C233.834 64.54 234.047 65.1727 234.047 65.996V70H232.851V66.074C232.825 65.034 232.3 64.514 231.278 64.514C230.801 64.514 230.402 64.709 230.082 65.099C229.761 65.4803 229.601 65.9397 229.601 66.477V70H228.405V63.63ZM238.311 70.208C237.375 70.208 236.603 69.8873 235.997 69.246C235.39 68.6047 235.087 67.7943 235.087 66.815C235.087 65.8443 235.381 65.0383 235.971 64.397C236.56 63.747 237.314 63.422 238.233 63.422C239.177 63.422 239.927 63.7297 240.482 64.345C241.045 64.9517 241.327 65.8053 241.327 66.906L241.314 67.036H236.309C236.326 67.66 236.534 68.1627 236.933 68.544C237.331 68.9253 237.808 69.116 238.363 69.116C239.125 69.116 239.723 68.7347 240.157 67.972L241.223 68.492C240.937 69.0293 240.538 69.4497 240.027 69.753C239.524 70.0563 238.952 70.208 238.311 70.208ZM236.4 66.048H240.053C240.018 65.606 239.836 65.242 239.507 64.956C239.186 64.6613 238.753 64.514 238.207 64.514C237.756 64.514 237.366 64.6527 237.037 64.93C236.716 65.2073 236.504 65.58 236.4 66.048ZM243.616 70H242.42V63.63H243.564V64.67H243.616C243.738 64.332 243.985 64.046 244.357 63.812C244.739 63.5693 245.111 63.448 245.475 63.448C245.822 63.448 246.117 63.5 246.359 63.604L245.995 64.761C245.848 64.7003 245.614 64.67 245.293 64.67C244.843 64.67 244.448 64.852 244.11 65.216C243.781 65.58 243.616 66.0047 243.616 66.49V70ZM247.639 69.194C247.639 69.4367 247.552 69.6447 247.379 69.818C247.214 69.9913 247.006 70.078 246.755 70.078C246.512 70.078 246.304 69.9913 246.131 69.818C245.958 69.6447 245.871 69.4367 245.871 69.194C245.871 68.9427 245.958 68.7347 246.131 68.57C246.304 68.3967 246.512 68.31 246.755 68.31C247.006 68.31 247.214 68.3967 247.379 68.57C247.552 68.7347 247.639 68.9427 247.639 69.194ZM253.257 61.836V65.112H255.181C255.666 65.112 256.078 64.956 256.416 64.644C256.754 64.3233 256.923 63.929 256.923 63.461C256.923 63.0277 256.763 62.6507 256.442 62.33C256.13 62.0007 255.736 61.836 255.259 61.836H253.257ZM253.257 70H252.061V60.692H255.233C256.039 60.692 256.724 60.9607 257.287 61.498C257.859 62.0267 258.145 62.681 258.145 63.461C258.145 64.1023 257.933 64.6743 257.508 65.177C257.092 65.671 256.563 65.9873 255.922 66.126L255.896 66.165L258.509 69.948V70H257.092L254.583 66.23H253.257V70ZM262.102 70.208C261.166 70.208 260.394 69.8873 259.788 69.246C259.181 68.6047 258.878 67.7943 258.878 66.815C258.878 65.8443 259.172 65.0383 259.762 64.397C260.351 63.747 261.105 63.422 262.024 63.422C262.968 63.422 263.718 63.7297 264.273 64.345C264.836 64.9517 265.118 65.8053 265.118 66.906L265.105 67.036H260.1C260.117 67.66 260.325 68.1627 260.724 68.544C261.122 68.9253 261.599 69.116 262.154 69.116C262.916 69.116 263.514 68.7347 263.948 67.972L265.014 68.492C264.728 69.0293 264.329 69.4497 263.818 69.753C263.315 70.0563 262.743 70.208 262.102 70.208ZM260.191 66.048H263.844C263.809 65.606 263.627 65.242 263.298 64.956C262.977 64.6613 262.544 64.514 261.998 64.514C261.547 64.514 261.157 64.6527 260.828 64.93C260.507 65.2073 260.295 65.58 260.191 66.048ZM269.022 60.588C269.456 60.588 269.811 60.6617 270.088 60.809L269.763 61.862C269.555 61.758 269.321 61.706 269.061 61.706C268.767 61.706 268.524 61.81 268.333 62.018C268.151 62.2173 268.06 62.486 268.06 62.824V63.63H269.724V64.722H268.06V70H266.864V64.722H265.668V63.63H266.864V62.707C266.864 62.0743 267.064 61.563 267.462 61.173C267.87 60.783 268.39 60.588 269.022 60.588ZM275.131 70H273.935V60.692H275.391L279.915 67.933H279.967L279.915 66.139V60.692H281.111V70H279.863L275.131 62.408H275.079L275.131 64.202V70ZM282.415 66.815C282.415 65.8357 282.722 65.0253 283.338 64.384C283.962 63.7427 284.746 63.422 285.691 63.422C286.635 63.422 287.415 63.7427 288.031 64.384C288.655 65.0253 288.967 65.8357 288.967 66.815C288.967 67.803 288.655 68.6133 288.031 69.246C287.415 69.8873 286.635 70.208 285.691 70.208C284.746 70.208 283.962 69.8873 283.338 69.246C282.722 68.6047 282.415 67.7943 282.415 66.815ZM283.611 66.815C283.611 67.4997 283.81 68.0543 284.209 68.479C284.607 68.9037 285.101 69.116 285.691 69.116C286.28 69.116 286.774 68.9037 287.173 68.479C287.571 68.0543 287.771 67.4997 287.771 66.815C287.771 66.139 287.571 65.5887 287.173 65.164C286.765 64.7307 286.271 64.514 285.691 64.514C285.11 64.514 284.616 64.7307 284.209 65.164C283.81 65.5887 283.611 66.139 283.611 66.815ZM291.717 69.194C291.717 69.4367 291.631 69.6447 291.457 69.818C291.293 69.9913 291.085 70.078 290.833 70.078C290.591 70.078 290.383 69.9913 290.209 69.818C290.036 69.6447 289.949 69.4367 289.949 69.194C289.949 68.9427 290.036 68.7347 290.209 68.57C290.383 68.3967 290.591 68.31 290.833 68.31C291.085 68.31 291.293 68.3967 291.457 68.57C291.631 68.7347 291.717 68.9427 291.717 69.194ZM297.335 66.009V70H296.139V60.692H301.573V61.836H297.335V64.891H301.157V66.009H297.335ZM308.183 68.856V70H302.515V68.804L304.816 66.477C305.587 65.6883 306.12 65.099 306.415 64.709C306.71 64.3103 306.857 63.8943 306.857 63.461C306.857 63.071 306.705 62.7373 306.402 62.46C306.099 62.1827 305.709 62.044 305.232 62.044C304.825 62.044 304.474 62.1653 304.179 62.408C303.884 62.6507 303.694 62.9453 303.607 63.292L302.515 62.85C302.688 62.304 303.022 61.8447 303.516 61.472C304.01 61.0907 304.591 60.9 305.258 60.9C306.064 60.9 306.736 61.147 307.273 61.641C307.81 62.135 308.079 62.7417 308.079 63.461C308.079 64.319 307.607 65.2463 306.662 66.243L304.062 68.856H308.183ZM309.321 65.554C309.321 64.202 309.655 63.0883 310.322 62.213C310.989 61.3377 311.847 60.9 312.896 60.9C313.945 60.9 314.803 61.342 315.47 62.226C316.137 63.1013 316.471 64.2107 316.471 65.554C316.471 66.8887 316.137 68.0023 315.47 68.895C314.803 69.7703 313.945 70.208 312.896 70.208C311.847 70.208 310.989 69.7703 310.322 68.895C309.655 68.0023 309.321 66.8887 309.321 65.554ZM315.249 65.554C315.249 64.5313 315.032 63.6907 314.599 63.032C314.174 62.3733 313.607 62.044 312.896 62.044C312.185 62.044 311.618 62.3733 311.193 63.032C310.76 63.6907 310.543 64.5313 310.543 65.554C310.543 66.5767 310.76 67.4217 311.193 68.089C311.618 68.739 312.185 69.064 312.896 69.064C313.607 69.064 314.174 68.7347 314.599 68.076C315.032 67.4087 315.249 66.568 315.249 65.554ZM323.1 68.856V70H317.432V68.804L319.733 66.477C320.504 65.6883 321.037 65.099 321.332 64.709C321.627 64.3103 321.774 63.8943 321.774 63.461C321.774 63.071 321.622 62.7373 321.319 62.46C321.016 62.1827 320.626 62.044 320.149 62.044C319.742 62.044 319.391 62.1653 319.096 62.408C318.801 62.6507 318.611 62.9453 318.524 63.292L317.432 62.85C317.605 62.304 317.939 61.8447 318.433 61.472C318.927 61.0907 319.508 60.9 320.175 60.9C320.981 60.9 321.653 61.147 322.19 61.641C322.727 62.135 322.996 62.7417 322.996 63.461C322.996 64.319 322.524 65.2463 321.579 66.243L318.979 68.856H323.1ZM327.439 61.108V70H326.243V62.59L324.514 63.344L324.059 62.33L326.672 61.108H327.439ZM329.1 65.554C329.1 64.202 329.434 63.0883 330.101 62.213C330.769 61.3377 331.627 60.9 332.675 60.9C333.724 60.9 334.582 61.342 335.249 62.226C335.917 63.1013 336.25 64.2107 336.25 65.554C336.25 66.8887 335.917 68.0023 335.249 68.895C334.582 69.7703 333.724 70.208 332.675 70.208C331.627 70.208 330.769 69.7703 330.101 68.895C329.434 68.0023 329.1 66.8887 329.1 65.554ZM335.028 65.554C335.028 64.5313 334.812 63.6907 334.378 63.032C333.954 62.3733 333.386 62.044 332.675 62.044C331.965 62.044 331.397 62.3733 330.972 63.032C330.539 63.6907 330.322 64.5313 330.322 65.554C330.322 66.5767 330.539 67.4217 330.972 68.089C331.397 68.739 331.965 69.064 332.675 69.064C333.386 69.064 333.954 68.7347 334.378 68.076C334.812 67.4087 335.028 66.568 335.028 65.554ZM337.39 65.554C337.39 64.202 337.724 63.0883 338.391 62.213C339.059 61.3377 339.917 60.9 340.965 60.9C342.014 60.9 342.872 61.342 343.539 62.226C344.207 63.1013 344.54 64.2107 344.54 65.554C344.54 66.8887 344.207 68.0023 343.539 68.895C342.872 69.7703 342.014 70.208 340.965 70.208C339.917 70.208 339.059 69.7703 338.391 68.895C337.724 68.0023 337.39 66.8887 337.39 65.554ZM343.318 65.554C343.318 64.5313 343.102 63.6907 342.668 63.032C342.244 62.3733 341.676 62.044 340.965 62.044C340.255 62.044 339.687 62.3733 339.262 63.032C338.829 63.6907 338.612 64.5313 338.612 65.554C338.612 66.5767 338.829 67.4217 339.262 68.089C339.687 68.739 340.255 69.064 340.965 69.064C341.676 69.064 342.244 68.7347 342.668 68.076C343.102 67.4087 343.318 66.568 343.318 65.554ZM351.491 67.478C351.491 68.258 351.201 68.908 350.62 69.428C350.048 69.948 349.338 70.208 348.488 70.208C347.821 70.208 347.219 70.0087 346.681 69.61C346.135 69.194 345.767 68.6523 345.576 67.985L346.668 67.53C346.807 68.024 347.032 68.4053 347.344 68.674C347.665 68.934 348.046 69.064 348.488 69.064C348.974 69.064 349.394 68.9123 349.749 68.609C350.096 68.297 350.269 67.92 350.269 67.478C350.269 67.036 350.087 66.6633 349.723 66.36C349.368 66.0567 348.939 65.905 348.436 65.905H347.669V64.787H348.345C348.822 64.787 349.212 64.657 349.515 64.397C349.819 64.1283 349.97 63.7817 349.97 63.357C349.97 62.967 349.827 62.6507 349.541 62.408C349.255 62.1653 348.878 62.044 348.41 62.044C347.656 62.044 347.141 62.4297 346.863 63.201L345.758 62.733C345.958 62.187 346.291 61.745 346.759 61.407C347.227 61.069 347.778 60.9 348.41 60.9C349.199 60.9 349.862 61.134 350.399 61.602C350.928 62.0527 351.192 62.6377 351.192 63.357C351.192 64.215 350.794 64.852 349.996 65.268V65.32C350.464 65.5193 350.828 65.8097 351.088 66.191C351.357 66.5723 351.491 67.0013 351.491 67.478ZM358.398 67.478C358.398 68.258 358.107 68.908 357.527 69.428C356.955 69.948 356.244 70.208 355.395 70.208C354.727 70.208 354.125 70.0087 353.588 69.61C353.042 69.194 352.673 68.6523 352.483 67.985L353.575 67.53C353.713 68.024 353.939 68.4053 354.251 68.674C354.571 68.934 354.953 69.064 355.395 69.064C355.88 69.064 356.3 68.9123 356.656 68.609C357.002 68.297 357.176 67.92 357.176 67.478C357.176 67.036 356.994 66.6633 356.63 66.36C356.274 66.0567 355.845 65.905 355.343 65.905H354.576V64.787H355.252C355.728 64.787 356.118 64.657 356.422 64.397C356.725 64.1283 356.877 63.7817 356.877 63.357C356.877 62.967 356.734 62.6507 356.448 62.408C356.162 62.1653 355.785 62.044 355.317 62.044C354.563 62.044 354.047 62.4297 353.77 63.201L352.665 62.733C352.864 62.187 353.198 61.745 353.666 61.407C354.134 61.069 354.684 60.9 355.317 60.9C356.105 60.9 356.768 61.134 357.306 61.602C357.834 62.0527 358.099 62.6377 358.099 63.357C358.099 64.215 357.7 64.852 356.903 65.268V65.32C357.371 65.5193 357.735 65.8097 357.995 66.191C358.263 66.5723 358.398 67.0013 358.398 67.478ZM365.2 62.33L360.884 70.208L359.818 69.662L363.939 62.252H359.441L359.467 61.108H365.2V62.33Z" fill="#747C87"/>
<line x1="182.5" y1="8" x2="182.5" y2="79" stroke="#747C87"/>
<defs>
<linearGradient id="paint0_linear_3902_3" x1="51" y1="77" x2="131" y2="77" gradientUnits="userSpaceOnUse">
<stop stop-color="#95DC78"/>
<stop offset="1" stop-color="#95DC78" stop-opacity="0.33"/>
</linearGradient>
<linearGradient id="paint1_linear_3902_3" x1="58" y1="26" x2="131" y2="26" gradientUnits="userSpaceOnUse">
<stop stop-color="#FFBB8A" stop-opacity="0.24"/>
<stop offset="1" stop-color="#FFBB8A"/>
</linearGradient>
</defs>
</svg>
