<svg width="367" height="80" viewBox="0 0 367 80" fill="none" xmlns="http://www.w3.org/2000/svg">
<path d="M131 54C125.472 67.5177 112.554 77 97.5 77C82.4457 77 69.5277 67.5177 64 54" stroke="url(#paint0_linear_1502_9)" stroke-width="5.05" stroke-linecap="round"/>
<path d="M131 26C125.472 12.4823 112.554 3 97.5 3C82.4457 3 69.5277 12.4823 64 26" stroke="url(#paint1_linear_1502_9)" stroke-width="5.05" stroke-linecap="round"/>
<path d="M6.55259 48.8781C5.56263 48.8781 4.6591 48.7231 3.84199 48.413C3.04059 48.0875 2.35705 47.6224 1.79136 47.0178C1.22567 46.4132 0.785683 45.6846 0.47141 44.832C0.157137 43.9639 0 42.9795 0 41.8789V31.8567H3.18202V42.0649C3.18202 42.623 3.25273 43.1345 3.39415 43.5996C3.53557 44.0647 3.74771 44.4677 4.03055 44.8088C4.3134 45.1498 4.66696 45.4211 5.09122 45.6226C5.51549 45.8087 6.00262 45.9017 6.55259 45.9017C7.11829 45.9017 7.61327 45.8087 8.03753 45.6226C8.4618 45.4211 8.81536 45.1498 9.09821 44.8088C9.38105 44.4677 9.59319 44.0647 9.73461 43.5996C9.87603 43.1345 9.94674 42.623 9.94674 42.0649V31.8567H13.1288V41.8789C13.1288 42.9175 12.9716 43.8709 12.6573 44.739C12.3588 45.5916 11.9188 46.328 11.3374 46.9481C10.7717 47.5527 10.0803 48.0255 9.2632 48.3665C8.4618 48.7076 7.55827 48.8781 6.55259 48.8781Z" fill="#32333D"/>
<path d="M16.1445 31.8567H22.2964C23.1449 31.8567 23.9149 31.9885 24.6063 32.252C25.2977 32.5156 25.887 32.8799 26.3741 33.3449C26.8769 33.81 27.2619 34.3681 27.529 35.0192C27.7962 35.6547 27.9297 36.3523 27.9297 37.112C27.9297 37.67 27.8354 38.1971 27.6469 38.6932C27.4583 39.1737 27.199 39.6156 26.8691 40.0186C26.5391 40.4062 26.1541 40.755 25.7141 41.065C25.2741 41.3595 24.8106 41.5921 24.3235 41.7626L24.2999 41.9254L28.8254 48.32V48.506H25.172L20.8114 42.2509H19.3265V48.506H16.1445V31.8567ZM22.2728 39.3675C22.9956 39.3675 23.5849 39.1505 24.0406 38.7164C24.512 38.2824 24.7477 37.732 24.7477 37.0654C24.7477 36.7709 24.6927 36.4841 24.5827 36.2051C24.4884 35.926 24.3392 35.678 24.1349 35.461C23.9306 35.2439 23.6713 35.0734 23.3571 34.9494C23.0585 34.8099 22.7128 34.7401 22.32 34.7401H19.3265V39.3675H22.2728Z" fill="#32333D"/>
<path d="M45.3366 44.8631C44.6273 46.098 43.6676 47.0962 42.4576 47.8577C41.2684 48.6192 39.808 49 38.0765 49C36.9082 49 35.8233 48.8045 34.8219 48.4134C33.8414 48.0018 32.986 47.4358 32.2558 46.7154C31.5256 45.9951 30.9519 45.1512 30.5347 44.1839C30.1383 43.196 29.9401 42.1154 29.9401 40.9423C29.9401 39.8515 30.1383 38.8224 30.5347 37.855C30.9311 36.8671 31.4839 36.013 32.1932 35.2926C32.9026 34.5517 33.7371 33.9651 34.6967 33.5329C35.6773 33.1007 36.7517 32.8846 37.92 32.8846C39.1509 32.8846 40.2462 33.0904 41.2058 33.502C42.1655 33.8931 42.9687 34.4488 43.6154 35.1691C44.2622 35.8689 44.7524 36.7025 45.0862 37.6698C45.42 38.6371 45.5869 39.6868 45.5869 40.8188C45.5869 40.9629 45.5869 41.0864 45.5869 41.1893C45.5661 41.3128 45.5556 41.426 45.5556 41.5289C45.5348 41.6318 45.5243 41.745 45.5243 41.8685H33.977C34.0604 42.4859 34.2273 43.021 34.4777 43.4738C34.7489 43.906 35.0723 44.2765 35.4478 44.5852C35.8442 44.8734 36.2719 45.0895 36.7308 45.2336C37.1898 45.357 37.6592 45.4188 38.139 45.4188C39.0778 45.4188 39.8498 45.213 40.4548 44.8013C41.0806 44.3691 41.5709 43.834 41.9256 43.196L45.3366 44.8631ZM41.6126 38.9973C41.5918 38.7298 41.4979 38.4313 41.331 38.102C41.185 37.7727 40.9555 37.464 40.6425 37.1758C40.3505 36.8877 39.9749 36.651 39.516 36.4658C39.0779 36.2805 38.5459 36.1879 37.92 36.1879C37.0438 36.1879 36.2719 36.4349 35.6043 36.9289C34.9367 37.4228 34.4673 38.1123 34.196 38.9973H41.6126Z" fill="#32333D"/>
<path d="M48.2051 48.506V26.4013H52.3046V48.506H48.2051Z" fill="#32333D"/>
<path d="M62.9219 32.8846C64.1111 32.8846 65.1959 33.0904 66.1765 33.502C67.1779 33.8931 68.0332 34.4488 68.7425 35.1691C69.4727 35.8689 70.036 36.7128 70.4324 37.7007C70.8496 38.6886 71.0583 39.7691 71.0583 40.9423C71.0583 42.1154 70.8496 43.196 70.4324 44.1839C70.036 45.1718 69.4727 46.026 68.7425 46.7463C68.0332 47.4461 67.1779 48.0018 66.1765 48.4134C65.1959 48.8045 64.1111 49 62.9219 49C61.7328 49 60.6375 48.8045 59.6361 48.4134C58.6555 48.0018 57.8002 47.4461 57.07 46.7463C56.3607 46.026 55.7974 45.1718 55.3801 44.1839C54.9838 43.196 54.7856 42.1154 54.7856 40.9423C54.7856 39.7691 54.9838 38.6886 55.3801 37.7007C55.7974 36.7128 56.3607 35.8689 57.07 35.1691C57.8002 34.4488 58.6555 33.8931 59.6361 33.502C60.6375 33.0904 61.7328 32.8846 62.9219 32.8846ZM62.9219 45.2644C63.4435 45.2644 63.9442 45.1718 64.424 44.9866C64.9247 44.7808 65.3628 44.4926 65.7383 44.1221C66.1139 43.7517 66.4059 43.2989 66.6146 42.7638C66.8441 42.2286 66.9588 41.6215 66.9588 40.9423C66.9588 40.2631 66.8441 39.6559 66.6146 39.1208C66.4059 38.5857 66.1139 38.1329 65.7383 37.7624C65.3628 37.3919 64.9247 37.1141 64.424 36.9289C63.9442 36.723 63.4435 36.6201 62.9219 36.6201C62.3795 36.6201 61.8684 36.723 61.3885 36.9289C60.9087 37.1141 60.481 37.3919 60.1055 37.7624C59.73 38.1329 59.4275 38.5857 59.198 39.1208C58.9893 39.6559 58.885 40.2631 58.885 40.9423C58.885 41.6215 58.9893 42.2286 59.198 42.7638C59.4275 43.2989 59.73 43.7517 60.1055 44.1221C60.481 44.4926 60.9087 44.7808 61.3885 44.9866C61.8684 45.1718 62.3795 45.2644 62.9219 45.2644Z" fill="#32333D"/>
<path d="M88.2439 44.647C87.5763 45.923 86.6375 46.9727 85.4274 47.796C84.2383 48.5987 82.7466 49 80.9524 49C79.7633 49 78.668 48.8045 77.6666 48.4134C76.6861 48.0018 75.8307 47.4358 75.1005 46.7154C74.3912 45.9951 73.8279 45.1512 73.4107 44.1839C73.0143 43.196 72.8161 42.1154 72.8161 40.9423C72.8161 39.7691 73.0143 38.6886 73.4107 37.7007C73.8279 36.7128 74.3912 35.8689 75.1005 35.1691C75.8307 34.4488 76.6861 33.8931 77.6666 33.502C78.668 33.0904 79.7633 32.8846 80.9524 32.8846C82.7258 32.8846 84.2174 33.2859 85.4274 34.0886C86.6375 34.8913 87.5241 35.9306 88.0874 37.2067L84.3322 38.7503C83.9775 38.0506 83.5185 37.5257 82.9552 37.1758C82.4128 36.8054 81.7244 36.6201 80.8899 36.6201C80.3474 36.6201 79.8363 36.723 79.3565 36.9289C78.8766 37.1347 78.449 37.4228 78.0734 37.7933C77.7188 38.1638 77.4371 38.6166 77.2285 39.1517C77.0199 39.6868 76.9156 40.2837 76.9156 40.9423C76.9156 41.6009 77.0199 42.1978 77.2285 42.7329C77.4371 43.268 77.7188 43.7208 78.0734 44.0913C78.449 44.4617 78.8766 44.7499 79.3565 44.9557C79.8363 45.1615 80.3474 45.2644 80.8899 45.2644C81.7452 45.2644 82.465 45.0792 83.0491 44.7087C83.6541 44.3177 84.134 43.762 84.4886 43.0416L88.2439 44.647Z" fill="#32333D"/>
<path d="M100.043 46.9007H99.7925C99.3126 47.477 98.7285 47.9709 98.04 48.3826C97.3724 48.7942 96.5066 49 95.4426 49C94.6499 49 93.8988 48.8662 93.1895 48.5987C92.501 48.3517 91.896 48.0018 91.3745 47.549C90.8529 47.0962 90.4461 46.5508 90.154 45.9128C89.8619 45.2747 89.7159 44.5749 89.7159 43.8134C89.7159 43.0313 89.8724 42.3315 90.1853 41.7141C90.4982 41.0761 90.9363 40.5306 91.4996 40.0779C92.0629 39.6251 92.7201 39.2855 93.4711 39.0591C94.243 38.8121 95.0775 38.6886 95.9746 38.6886C96.976 38.6886 97.8001 38.7709 98.4468 38.9356C99.0936 39.0796 99.6256 39.234 100.043 39.3987V38.9356C100.043 38.1329 99.7194 37.4743 99.0727 36.9597C98.426 36.4246 97.6228 36.157 96.6631 36.157C95.2444 36.157 94.0449 36.7436 93.0643 37.9168L90.0914 35.9101C91.7187 33.8931 93.9405 32.8846 96.757 32.8846C99.1353 32.8846 100.95 33.4403 102.202 34.5517C103.454 35.6425 104.08 37.2685 104.08 39.4295V48.506H100.043V46.9007ZM100.043 42.3624C99.563 42.136 99.0623 41.9611 98.5407 41.8376C98.04 41.6935 97.4872 41.6215 96.8821 41.6215C95.9016 41.6215 95.1401 41.8376 94.5977 42.2698C94.0761 42.6814 93.8154 43.196 93.8154 43.8134C93.8154 44.4309 94.0657 44.9248 94.5664 45.2953C95.088 45.6658 95.6826 45.851 96.3502 45.851C96.8926 45.851 97.3933 45.7584 97.8522 45.5732C98.3112 45.3673 98.6972 45.1101 99.0101 44.8013C99.3439 44.472 99.5943 44.1016 99.7612 43.6899C99.9489 43.2577 100.043 42.8152 100.043 42.3624Z" fill="#32333D"/>
<path d="M108.723 36.8362H106.032V33.3785H108.723V28.7477H112.823V33.3785H116.578V36.8362H112.823V42.702C112.823 43.0519 112.854 43.3812 112.917 43.6899C113 43.9781 113.146 44.2251 113.355 44.4309C113.647 44.7602 114.064 44.9248 114.607 44.9248C114.961 44.9248 115.243 44.894 115.452 44.8322C115.66 44.7499 115.858 44.647 116.046 44.5235L117.204 48.0738C116.724 48.3002 116.203 48.4649 115.639 48.5678C115.097 48.6913 114.492 48.753 113.824 48.753C113.052 48.753 112.353 48.6398 111.728 48.4134C111.123 48.1664 110.611 47.8371 110.194 47.4255C109.214 46.4993 108.723 45.1821 108.723 43.4738V36.8362Z" fill="#32333D"/>
<path d="M122.031 31.1866C121.676 31.1866 121.332 31.1248 120.998 31.0013C120.685 30.8573 120.404 30.672 120.153 30.4456C119.924 30.1987 119.736 29.9208 119.59 29.6121C119.465 29.3034 119.402 28.9638 119.402 28.5933C119.402 28.2228 119.465 27.8832 119.59 27.5745C119.736 27.2658 119.924 26.9982 120.153 26.7718C120.404 26.5248 120.685 26.3396 120.998 26.2161C121.332 26.072 121.676 26 122.031 26C122.761 26 123.387 26.2573 123.909 26.7718C124.43 27.2658 124.691 27.8729 124.691 28.5933C124.691 29.3136 124.43 29.9311 123.909 30.4456C123.387 30.9396 122.761 31.1866 122.031 31.1866ZM119.997 48.506V33.3785H124.096V48.506H119.997Z" fill="#32333D"/>
<path d="M134.952 32.8846C136.142 32.8846 137.226 33.0904 138.207 33.502C139.208 33.8931 140.064 34.4488 140.773 35.1691C141.503 35.8689 142.066 36.7128 142.463 37.7007C142.88 38.6886 143.089 39.7691 143.089 40.9423C143.089 42.1154 142.88 43.196 142.463 44.1839C142.066 45.1718 141.503 46.026 140.773 46.7463C140.064 47.4461 139.208 48.0018 138.207 48.4134C137.226 48.8045 136.142 49 134.952 49C133.763 49 132.668 48.8045 131.667 48.4134C130.686 48.0018 129.831 47.4461 129.1 46.7463C128.391 46.026 127.828 45.1718 127.411 44.1839C127.014 43.196 126.816 42.1154 126.816 40.9423C126.816 39.7691 127.014 38.6886 127.411 37.7007C127.828 36.7128 128.391 35.8689 129.1 35.1691C129.831 34.4488 130.686 33.8931 131.667 33.502C132.668 33.0904 133.763 32.8846 134.952 32.8846ZM134.952 45.2644C135.474 45.2644 135.975 45.1718 136.454 44.9866C136.955 44.7808 137.393 44.4926 137.769 44.1221C138.144 43.7517 138.436 43.2989 138.645 42.7638C138.874 42.2286 138.989 41.6215 138.989 40.9423C138.989 40.2631 138.874 39.6559 138.645 39.1208C138.436 38.5857 138.144 38.1329 137.769 37.7624C137.393 37.3919 136.955 37.1141 136.454 36.9289C135.975 36.723 135.474 36.6201 134.952 36.6201C134.41 36.6201 133.899 36.723 133.419 36.9289C132.939 37.1141 132.511 37.3919 132.136 37.7624C131.76 38.1329 131.458 38.5857 131.228 39.1208C131.02 39.6559 130.915 40.2631 130.915 40.9423C130.915 41.6215 131.02 42.2286 131.228 42.7638C131.458 43.2989 131.76 43.7517 132.136 44.1221C132.511 44.4926 132.939 44.7808 133.419 44.9866C133.899 45.1718 134.41 45.2644 134.952 45.2644Z" fill="#32333D"/>
<path d="M149.266 35.3544H149.517C149.996 34.5928 150.643 33.996 151.457 33.5638C152.27 33.111 153.199 32.8846 154.242 32.8846C155.202 32.8846 156.047 33.0389 156.777 33.3477C157.507 33.6564 158.102 34.0989 158.561 34.6752C159.04 35.2309 159.395 35.9101 159.624 36.7128C159.875 37.4949 160 38.3696 160 39.3369V48.506H155.901V39.8309C155.901 38.74 155.65 37.9374 155.149 37.4228C154.67 36.8877 153.96 36.6201 153.022 36.6201C152.458 36.6201 151.958 36.7436 151.519 36.9906C151.102 37.217 150.737 37.536 150.424 37.9477C150.132 38.3387 149.903 38.8121 149.736 39.3678C149.59 39.9029 149.517 40.4792 149.517 41.0966V48.506H145.417V33.3785H149.266V35.3544Z" fill="#32333D"/>
<path d="M214.049 30.346C214.049 31.724 213.59 32.8767 212.671 33.804C211.744 34.74 210.608 35.208 209.265 35.208C207.913 35.208 206.778 34.74 205.859 33.804C204.94 32.8767 204.481 31.724 204.481 30.346C204.481 28.968 204.94 27.8153 205.859 26.888C206.778 25.952 207.913 25.484 209.265 25.484C210.617 25.484 211.752 25.9563 212.671 26.901C213.59 27.8283 214.049 28.9767 214.049 30.346ZM205.703 30.346C205.703 31.4207 206.041 32.309 206.717 33.011C207.402 33.713 208.251 34.064 209.265 34.064C210.279 34.064 211.124 33.713 211.8 33.011C212.485 32.3177 212.827 31.4293 212.827 30.346C212.827 29.2627 212.485 28.3743 211.8 27.681C211.124 26.979 210.279 26.628 209.265 26.628C208.251 26.628 207.402 26.979 206.717 27.681C206.041 28.383 205.703 29.2713 205.703 30.346ZM215.189 28.63H216.333V29.514H216.385C216.567 29.202 216.844 28.942 217.217 28.734C217.598 28.526 217.993 28.422 218.4 28.422C219.18 28.422 219.778 28.6473 220.194 29.098C220.619 29.54 220.831 30.1727 220.831 30.996V35H219.635V31.074C219.609 30.034 219.085 29.514 218.062 29.514C217.585 29.514 217.187 29.709 216.866 30.099C216.545 30.4803 216.385 30.9397 216.385 31.477V35H215.189V28.63ZM225.095 35.208C224.159 35.208 223.388 34.8873 222.781 34.246C222.174 33.6047 221.871 32.7943 221.871 31.815C221.871 30.8443 222.166 30.0383 222.755 29.397C223.344 28.747 224.098 28.422 225.017 28.422C225.962 28.422 226.711 28.7297 227.266 29.345C227.829 29.9517 228.111 30.8053 228.111 31.906L228.098 32.036H223.093C223.11 32.66 223.318 33.1627 223.717 33.544C224.116 33.9253 224.592 34.116 225.147 34.116C225.91 34.116 226.508 33.7347 226.941 32.972L228.007 33.492C227.721 34.0293 227.322 34.4497 226.811 34.753C226.308 35.0563 225.736 35.208 225.095 35.208ZM223.184 31.048H226.837C226.802 30.606 226.62 30.242 226.291 29.956C225.97 29.6613 225.537 29.514 224.991 29.514C224.54 29.514 224.15 29.6527 223.821 29.93C223.5 30.2073 223.288 30.58 223.184 31.048ZM235.181 34.116C235.753 34.116 236.234 33.8993 236.624 33.466C237.014 33.0413 237.209 32.491 237.209 31.815C237.209 31.1477 237.014 30.5973 236.624 30.164C236.234 29.7307 235.753 29.514 235.181 29.514C234.6 29.514 234.115 29.7307 233.725 30.164C233.344 30.5973 233.153 31.1477 233.153 31.815C233.153 32.491 233.344 33.0457 233.725 33.479C234.115 33.9037 234.6 34.116 235.181 34.116ZM235.376 35.208C234.908 35.208 234.479 35.1083 234.089 34.909C233.708 34.7097 233.413 34.4453 233.205 34.116H233.153L233.205 35V37.808H232.009V28.63H233.153V29.514H233.205C233.413 29.1847 233.708 28.9203 234.089 28.721C234.479 28.5217 234.908 28.422 235.376 28.422C236.217 28.422 236.927 28.7513 237.508 29.41C238.106 30.0773 238.405 30.879 238.405 31.815C238.405 32.7597 238.106 33.5613 237.508 34.22C236.927 34.8787 236.217 35.208 235.376 35.208ZM240.57 25.692V35H239.374V25.692H240.57ZM242.834 33.05C242.834 33.362 242.964 33.622 243.224 33.83C243.493 34.038 243.805 34.142 244.16 34.142C244.663 34.142 245.109 33.9557 245.499 33.583C245.898 33.2103 246.097 32.7727 246.097 32.27C245.725 31.9753 245.205 31.828 244.537 31.828C244.052 31.828 243.645 31.945 243.315 32.179C242.995 32.413 242.834 32.7033 242.834 33.05ZM244.381 28.422C245.265 28.422 245.963 28.6603 246.474 29.137C246.986 29.605 247.241 30.2507 247.241 31.074V35H246.097V34.116H246.045C245.551 34.844 244.893 35.208 244.069 35.208C243.367 35.208 242.778 35 242.301 34.584C241.833 34.168 241.599 33.648 241.599 33.024C241.599 32.3653 241.846 31.841 242.34 31.451C242.843 31.061 243.51 30.866 244.342 30.866C245.053 30.866 245.638 30.996 246.097 31.256V30.983C246.097 30.567 245.933 30.216 245.603 29.93C245.274 29.6353 244.888 29.488 244.446 29.488C243.779 29.488 243.25 29.7697 242.86 30.333L241.807 29.67C242.388 28.838 243.246 28.422 244.381 28.422ZM250.985 35.104C250.474 35.104 250.045 34.9437 249.698 34.623C249.352 34.3023 249.174 33.856 249.165 33.284V29.722H248.047V28.63H249.165V26.68H250.361V28.63H253.221V27.707C253.221 27.0743 253.421 26.563 253.819 26.173C254.227 25.783 254.747 25.588 255.379 25.588C255.813 25.588 256.168 25.6617 256.445 25.809L256.12 26.862C255.912 26.758 255.678 26.706 255.418 26.706C255.124 26.706 254.881 26.81 254.69 27.018C254.508 27.2173 254.417 27.486 254.417 27.824V28.63H256.081V29.722H254.417V35H253.221V29.722H250.361V32.933C250.361 33.3057 250.435 33.5743 250.582 33.739C250.738 33.9037 250.92 33.986 251.128 33.986C251.328 33.986 251.518 33.947 251.7 33.869L252.077 34.935C251.757 35.0477 251.393 35.104 250.985 35.104ZM256.466 31.815C256.466 30.8357 256.773 30.0253 257.389 29.384C258.013 28.7427 258.797 28.422 259.742 28.422C260.686 28.422 261.466 28.7427 262.082 29.384C262.706 30.0253 263.018 30.8357 263.018 31.815C263.018 32.803 262.706 33.6133 262.082 34.246C261.466 34.8873 260.686 35.208 259.742 35.208C258.797 35.208 258.013 34.8873 257.389 34.246C256.773 33.6047 256.466 32.7943 256.466 31.815ZM257.662 31.815C257.662 32.4997 257.861 33.0543 258.26 33.479C258.658 33.9037 259.152 34.116 259.742 34.116C260.331 34.116 260.825 33.9037 261.224 33.479C261.622 33.0543 261.822 32.4997 261.822 31.815C261.822 31.139 261.622 30.5887 261.224 30.164C260.816 29.7307 260.322 29.514 259.742 29.514C259.161 29.514 258.667 29.7307 258.26 30.164C257.861 30.5887 257.662 31.139 257.662 31.815ZM265.173 35H263.977V28.63H265.121V29.67H265.173C265.294 29.332 265.541 29.046 265.914 28.812C266.295 28.5693 266.668 28.448 267.032 28.448C267.379 28.448 267.673 28.5 267.916 28.604L267.552 29.761C267.405 29.7003 267.171 29.67 266.85 29.67C266.399 29.67 266.005 29.852 265.667 30.216C265.338 30.58 265.173 31.0047 265.173 31.49V35ZM269.896 35H268.7V28.63H269.844V29.514H269.896C270.078 29.202 270.355 28.942 270.728 28.734C271.109 28.526 271.486 28.422 271.859 28.422C272.327 28.422 272.738 28.5303 273.094 28.747C273.449 28.9637 273.709 29.2627 273.874 29.644C274.402 28.8293 275.135 28.422 276.071 28.422C276.807 28.422 277.375 28.6473 277.774 29.098C278.172 29.5487 278.372 30.19 278.372 31.022V35H277.176V31.204C277.176 30.606 277.067 30.177 276.851 29.917C276.634 29.6483 276.27 29.514 275.759 29.514C275.299 29.514 274.914 29.709 274.602 30.099C274.29 30.489 274.134 30.9483 274.134 31.477V35H272.938V31.204C272.938 30.606 272.829 30.177 272.613 29.917C272.396 29.6483 272.032 29.514 271.521 29.514C271.061 29.514 270.676 29.709 270.364 30.099C270.052 30.489 269.896 30.9483 269.896 31.477V35ZM283.822 35H282.626V28.63H283.77V29.514H283.822C284.004 29.202 284.282 28.942 284.654 28.734C285.036 28.526 285.413 28.422 285.785 28.422C286.253 28.422 286.665 28.5303 287.02 28.747C287.376 28.9637 287.636 29.2627 287.8 29.644C288.329 28.8293 289.061 28.422 289.997 28.422C290.734 28.422 291.302 28.6473 291.7 29.098C292.099 29.5487 292.298 30.19 292.298 31.022V35H291.102V31.204C291.102 30.606 290.994 30.177 290.777 29.917C290.561 29.6483 290.197 29.514 289.685 29.514C289.226 29.514 288.84 29.709 288.528 30.099C288.216 30.489 288.06 30.9483 288.06 31.477V35H286.864V31.204C286.864 30.606 286.756 30.177 286.539 29.917C286.323 29.6483 285.959 29.514 285.447 29.514C284.988 29.514 284.602 29.709 284.29 30.099C283.978 30.489 283.822 30.9483 283.822 31.477V35ZM296.557 35.208C295.621 35.208 294.849 34.8873 294.243 34.246C293.636 33.6047 293.333 32.7943 293.333 31.815C293.333 30.8443 293.627 30.0383 294.217 29.397C294.806 28.747 295.56 28.422 296.479 28.422C297.423 28.422 298.173 28.7297 298.728 29.345C299.291 29.9517 299.573 30.8053 299.573 31.906L299.56 32.036H294.555C294.572 32.66 294.78 33.1627 295.179 33.544C295.577 33.9253 296.054 34.116 296.609 34.116C297.371 34.116 297.969 33.7347 298.403 32.972L299.469 33.492C299.183 34.0293 298.784 34.4497 298.273 34.753C297.77 35.0563 297.198 35.208 296.557 35.208ZM294.646 31.048H298.299C298.264 30.606 298.082 30.242 297.753 29.956C297.432 29.6613 296.999 29.514 296.453 29.514C296.002 29.514 295.612 29.6527 295.283 29.93C294.962 30.2073 294.75 30.58 294.646 31.048ZM303.59 35.208C302.654 35.208 301.883 34.8873 301.276 34.246C300.669 33.6047 300.366 32.7943 300.366 31.815C300.366 30.8443 300.661 30.0383 301.25 29.397C301.839 28.747 302.593 28.422 303.512 28.422C304.457 28.422 305.206 28.7297 305.761 29.345C306.324 29.9517 306.606 30.8053 306.606 31.906L306.593 32.036H301.588C301.605 32.66 301.813 33.1627 302.212 33.544C302.611 33.9253 303.087 34.116 303.642 34.116C304.405 34.116 305.003 33.7347 305.436 32.972L306.502 33.492C306.216 34.0293 305.817 34.4497 305.306 34.753C304.803 35.0563 304.231 35.208 303.59 35.208ZM301.679 31.048H305.332C305.297 30.606 305.115 30.242 304.786 29.956C304.465 29.6613 304.032 29.514 303.486 29.514C303.035 29.514 302.645 29.6527 302.316 29.93C301.995 30.2073 301.783 30.58 301.679 31.048ZM310.031 35.104C309.511 35.104 309.078 34.9437 308.731 34.623C308.393 34.3023 308.22 33.856 308.211 33.284V29.722H307.093V28.63H308.211V26.68H309.407V28.63H310.967V29.722H309.407V32.894C309.407 33.3187 309.49 33.609 309.654 33.765C309.819 33.9123 310.005 33.986 310.213 33.986C310.309 33.986 310.4 33.9773 310.486 33.96C310.582 33.934 310.668 33.9037 310.746 33.869L311.123 34.935C310.811 35.0477 310.447 35.104 310.031 35.104ZM313.715 26.433C313.715 26.667 313.633 26.8663 313.468 27.031C313.304 27.1957 313.104 27.278 312.87 27.278C312.636 27.278 312.437 27.1957 312.272 27.031C312.108 26.8663 312.025 26.667 312.025 26.433C312.025 26.199 312.108 25.9997 312.272 25.835C312.437 25.6703 312.636 25.588 312.87 25.588C313.104 25.588 313.304 25.6703 313.468 25.835C313.633 25.9997 313.715 26.199 313.715 26.433ZM313.468 28.63V35H312.272V28.63H313.468ZM315.025 28.63H316.169V29.514H316.221C316.403 29.202 316.68 28.942 317.053 28.734C317.434 28.526 317.829 28.422 318.236 28.422C319.016 28.422 319.614 28.6473 320.03 29.098C320.455 29.54 320.667 30.1727 320.667 30.996V35H319.471V31.074C319.445 30.034 318.921 29.514 317.898 29.514C317.421 29.514 317.023 29.709 316.702 30.099C316.381 30.4803 316.221 30.9397 316.221 31.477V35H315.025V28.63ZM324.867 34.116C325.457 34.116 325.938 33.9037 326.31 33.479C326.7 33.0543 326.895 32.4997 326.895 31.815C326.895 31.1477 326.7 30.5973 326.31 30.164C325.929 29.7307 325.448 29.514 324.867 29.514C324.295 29.514 323.814 29.7307 323.424 30.164C323.034 30.5973 322.839 31.1477 322.839 31.815C322.839 32.491 323.034 33.0413 323.424 33.466C323.814 33.8993 324.295 34.116 324.867 34.116ZM324.828 38.016C324.473 38.016 324.139 37.9683 323.827 37.873C323.515 37.7863 323.229 37.6607 322.969 37.496C322.718 37.3313 322.501 37.1363 322.319 36.911C322.137 36.6857 321.999 36.4343 321.903 36.157L323.034 35.689C323.164 36.0617 323.39 36.3607 323.71 36.586C324.031 36.8113 324.404 36.924 324.828 36.924C325.478 36.924 325.985 36.729 326.349 36.339C326.713 35.949 326.895 35.4117 326.895 34.727V34.116H326.843C326.618 34.454 326.31 34.7227 325.92 34.922C325.539 35.1127 325.123 35.208 324.672 35.208C323.84 35.208 323.125 34.883 322.527 34.233C321.938 33.5657 321.643 32.7597 321.643 31.815C321.643 30.8703 321.938 30.0687 322.527 29.41C323.125 28.7513 323.84 28.422 324.672 28.422C325.123 28.422 325.539 28.5217 325.92 28.721C326.31 28.9117 326.618 29.176 326.843 29.514H326.895V28.63H328.039V34.727C328.039 35.7497 327.749 36.5513 327.168 37.132C326.579 37.7213 325.799 38.016 324.828 38.016ZM333.225 33.05C333.225 33.362 333.355 33.622 333.615 33.83C333.884 34.038 334.196 34.142 334.551 34.142C335.054 34.142 335.5 33.9557 335.89 33.583C336.289 33.2103 336.488 32.7727 336.488 32.27C336.115 31.9753 335.595 31.828 334.928 31.828C334.443 31.828 334.035 31.945 333.706 32.179C333.385 32.413 333.225 32.7033 333.225 33.05ZM334.772 28.422C335.656 28.422 336.354 28.6603 336.865 29.137C337.376 29.605 337.632 30.2507 337.632 31.074V35H336.488V34.116H336.436C335.942 34.844 335.283 35.208 334.46 35.208C333.758 35.208 333.169 35 332.692 34.584C332.224 34.168 331.99 33.648 331.99 33.024C331.99 32.3653 332.237 31.841 332.731 31.451C333.234 31.061 333.901 30.866 334.733 30.866C335.444 30.866 336.029 30.996 336.488 31.256V30.983C336.488 30.567 336.323 30.216 335.994 29.93C335.665 29.6353 335.279 29.488 334.837 29.488C334.17 29.488 333.641 29.7697 333.251 30.333L332.198 29.67C332.779 28.838 333.637 28.422 334.772 28.422ZM340.177 25.692V35H338.981V25.692H340.177ZM342.83 25.692V35H341.634V25.692H342.83ZM210.422 51.63L206.431 60.808H205.196L206.678 57.597L204.052 51.63H205.352L207.25 56.206H207.276L209.122 51.63H210.422ZM210.585 54.815C210.585 53.8357 210.892 53.0253 211.508 52.384C212.132 51.7427 212.916 51.422 213.861 51.422C214.805 51.422 215.585 51.7427 216.201 52.384C216.825 53.0253 217.137 53.8357 217.137 54.815C217.137 55.803 216.825 56.6133 216.201 57.246C215.585 57.8873 214.805 58.208 213.861 58.208C212.916 58.208 212.132 57.8873 211.508 57.246C210.892 56.6047 210.585 55.7943 210.585 54.815ZM211.781 54.815C211.781 55.4997 211.98 56.0543 212.379 56.479C212.777 56.9037 213.271 57.116 213.861 57.116C214.45 57.116 214.944 56.9037 215.343 56.479C215.741 56.0543 215.941 55.4997 215.941 54.815C215.941 54.139 215.741 53.5887 215.343 53.164C214.935 52.7307 214.441 52.514 213.861 52.514C213.28 52.514 212.786 52.7307 212.379 53.164C211.98 53.5887 211.781 54.139 211.781 54.815ZM223.75 58H222.606V57.116H222.554C222.372 57.428 222.09 57.688 221.709 57.896C221.336 58.104 220.946 58.208 220.539 58.208C219.759 58.208 219.156 57.987 218.732 57.545C218.316 57.0943 218.108 56.4573 218.108 55.634V51.63H219.304V55.556C219.33 56.596 219.854 57.116 220.877 57.116C221.353 57.116 221.752 56.9253 222.073 56.544C222.393 56.154 222.554 55.6903 222.554 55.153V51.63H223.75V58ZM226.402 58H225.206V51.63H226.35V52.67H226.402C226.523 52.332 226.77 52.046 227.143 51.812C227.524 51.5693 227.897 51.448 228.261 51.448C228.607 51.448 228.902 51.5 229.145 51.604L228.781 52.761C228.633 52.7003 228.399 52.67 228.079 52.67C227.628 52.67 227.234 52.852 226.896 53.216C226.566 53.58 226.402 54.0047 226.402 54.49V58ZM233.981 58H232.785V51.63H233.929V52.67H233.981C234.102 52.332 234.349 52.046 234.722 51.812C235.103 51.5693 235.476 51.448 235.84 51.448C236.186 51.448 236.481 51.5 236.724 51.604L236.36 52.761C236.212 52.7003 235.978 52.67 235.658 52.67C235.207 52.67 234.813 52.852 234.475 53.216C234.145 53.58 233.981 54.0047 233.981 54.49V58ZM239.974 58.208C239.038 58.208 238.266 57.8873 237.66 57.246C237.053 56.6047 236.75 55.7943 236.75 54.815C236.75 53.8443 237.044 53.0383 237.634 52.397C238.223 51.747 238.977 51.422 239.896 51.422C240.84 51.422 241.59 51.7297 242.145 52.345C242.708 52.9517 242.99 53.8053 242.99 54.906L242.977 55.036H237.972C237.989 55.66 238.197 56.1627 238.596 56.544C238.994 56.9253 239.471 57.116 240.026 57.116C240.788 57.116 241.386 56.7347 241.82 55.972L242.886 56.492C242.6 57.0293 242.201 57.4497 241.69 57.753C241.187 58.0563 240.615 58.208 239.974 58.208ZM238.063 54.048H241.716C241.681 53.606 241.499 53.242 241.17 52.956C240.849 52.6613 240.416 52.514 239.87 52.514C239.419 52.514 239.029 52.6527 238.7 52.93C238.379 53.2073 238.167 53.58 238.063 54.048ZM245.279 48.692V58H244.083V48.692H245.279ZM246.309 54.815C246.309 53.8357 246.617 53.0253 247.232 52.384C247.856 51.7427 248.641 51.422 249.585 51.422C250.53 51.422 251.31 51.7427 251.925 52.384C252.549 53.0253 252.861 53.8357 252.861 54.815C252.861 55.803 252.549 56.6133 251.925 57.246C251.31 57.8873 250.53 58.208 249.585 58.208C248.641 58.208 247.856 57.8873 247.232 57.246C246.617 56.6047 246.309 55.7943 246.309 54.815ZM247.505 54.815C247.505 55.4997 247.705 56.0543 248.103 56.479C248.502 56.9037 248.996 57.116 249.585 57.116C250.175 57.116 250.669 56.9037 251.067 56.479C251.466 56.0543 251.665 55.4997 251.665 54.815C251.665 54.139 251.466 53.5887 251.067 53.164C250.66 52.7307 250.166 52.514 249.585 52.514C249.005 52.514 248.511 52.7307 248.103 53.164C247.705 53.5887 247.505 54.139 247.505 54.815ZM256.86 58.208C255.915 58.208 255.131 57.8873 254.507 57.246C253.891 56.5873 253.584 55.777 253.584 54.815C253.584 53.8357 253.891 53.0253 254.507 52.384C255.131 51.7427 255.915 51.422 256.86 51.422C257.51 51.422 258.077 51.5867 258.563 51.916C259.048 52.2367 259.412 52.683 259.655 53.255L258.563 53.71C258.225 52.9127 257.631 52.514 256.782 52.514C256.236 52.514 255.763 52.735 255.365 53.177C254.975 53.619 254.78 54.165 254.78 54.815C254.78 55.465 254.975 56.011 255.365 56.453C255.763 56.895 256.236 57.116 256.782 57.116C257.657 57.116 258.272 56.7173 258.628 55.92L259.694 56.375C259.46 56.947 259.091 57.3977 258.589 57.727C258.095 58.0477 257.518 58.208 256.86 58.208ZM261.547 56.05C261.547 56.362 261.677 56.622 261.937 56.83C262.206 57.038 262.518 57.142 262.873 57.142C263.376 57.142 263.822 56.9557 264.212 56.583C264.611 56.2103 264.81 55.7727 264.81 55.27C264.438 54.9753 263.918 54.828 263.25 54.828C262.765 54.828 262.358 54.945 262.028 55.179C261.708 55.413 261.547 55.7033 261.547 56.05ZM263.094 51.422C263.978 51.422 264.676 51.6603 265.187 52.137C265.699 52.605 265.954 53.2507 265.954 54.074V58H264.81V57.116H264.758C264.264 57.844 263.606 58.208 262.782 58.208C262.08 58.208 261.491 58 261.014 57.584C260.546 57.168 260.312 56.648 260.312 56.024C260.312 55.3653 260.559 54.841 261.053 54.451C261.556 54.061 262.223 53.866 263.055 53.866C263.766 53.866 264.351 53.996 264.81 54.256V53.983C264.81 53.567 264.646 53.216 264.316 52.93C263.987 52.6353 263.601 52.488 263.159 52.488C262.492 52.488 261.963 52.7697 261.573 53.333L260.52 52.67C261.101 51.838 261.959 51.422 263.094 51.422ZM269.698 58.104C269.178 58.104 268.745 57.9437 268.398 57.623C268.06 57.3023 267.887 56.856 267.878 56.284V52.722H266.76V51.63H267.878V49.68H269.074V51.63H270.634V52.722H269.074V55.894C269.074 56.3187 269.157 56.609 269.321 56.765C269.486 56.9123 269.672 56.986 269.88 56.986C269.976 56.986 270.067 56.9773 270.153 56.96C270.249 56.934 270.335 56.9037 270.413 56.869L270.79 57.935C270.478 58.0477 270.114 58.104 269.698 58.104ZM273.382 49.433C273.382 49.667 273.3 49.8663 273.135 50.031C272.971 50.1957 272.771 50.278 272.537 50.278C272.303 50.278 272.104 50.1957 271.939 50.031C271.775 49.8663 271.692 49.667 271.692 49.433C271.692 49.199 271.775 48.9997 271.939 48.835C272.104 48.6703 272.303 48.588 272.537 48.588C272.771 48.588 272.971 48.6703 273.135 48.835C273.3 48.9997 273.382 49.199 273.382 49.433ZM273.135 51.63V58H271.939V51.63H273.135ZM274.264 54.815C274.264 53.8357 274.572 53.0253 275.187 52.384C275.811 51.7427 276.596 51.422 277.54 51.422C278.485 51.422 279.265 51.7427 279.88 52.384C280.504 53.0253 280.816 53.8357 280.816 54.815C280.816 55.803 280.504 56.6133 279.88 57.246C279.265 57.8873 278.485 58.208 277.54 58.208C276.596 58.208 275.811 57.8873 275.187 57.246C274.572 56.6047 274.264 55.7943 274.264 54.815ZM275.46 54.815C275.46 55.4997 275.66 56.0543 276.058 56.479C276.457 56.9037 276.951 57.116 277.54 57.116C278.13 57.116 278.624 56.9037 279.022 56.479C279.421 56.0543 279.62 55.4997 279.62 54.815C279.62 54.139 279.421 53.5887 279.022 53.164C278.615 52.7307 278.121 52.514 277.54 52.514C276.96 52.514 276.466 52.7307 276.058 53.164C275.66 53.5887 275.46 54.139 275.46 54.815ZM281.776 51.63H282.92V52.514H282.972C283.154 52.202 283.431 51.942 283.804 51.734C284.185 51.526 284.58 51.422 284.987 51.422C285.767 51.422 286.365 51.6473 286.781 52.098C287.206 52.54 287.418 53.1727 287.418 53.996V58H286.222V54.074C286.196 53.034 285.672 52.514 284.649 52.514C284.172 52.514 283.774 52.709 283.453 53.099C283.132 53.4803 282.972 53.9397 282.972 54.477V58H281.776V51.63ZM291.678 51.63H292.822V52.514H292.874C293.056 52.202 293.334 51.942 293.706 51.734C294.088 51.526 294.482 51.422 294.889 51.422C295.669 51.422 296.267 51.6473 296.683 52.098C297.108 52.54 297.32 53.1727 297.32 53.996V58H296.124V54.074C296.098 53.034 295.574 52.514 294.551 52.514C294.075 52.514 293.676 52.709 293.355 53.099C293.035 53.4803 292.874 53.9397 292.874 54.477V58H291.678V51.63ZM301.584 58.208C300.648 58.208 299.877 57.8873 299.27 57.246C298.663 56.6047 298.36 55.7943 298.36 54.815C298.36 53.8443 298.655 53.0383 299.244 52.397C299.833 51.747 300.587 51.422 301.506 51.422C302.451 51.422 303.2 51.7297 303.755 52.345C304.318 52.9517 304.6 53.8053 304.6 54.906L304.587 55.036H299.582C299.599 55.66 299.807 56.1627 300.206 56.544C300.605 56.9253 301.081 57.116 301.636 57.116C302.399 57.116 302.997 56.7347 303.43 55.972L304.496 56.492C304.21 57.0293 303.811 57.4497 303.3 57.753C302.797 58.0563 302.225 58.208 301.584 58.208ZM299.673 54.048H303.326C303.291 53.606 303.109 53.242 302.78 52.956C302.459 52.6613 302.026 52.514 301.48 52.514C301.029 52.514 300.639 52.6527 300.31 52.93C299.989 53.2073 299.777 53.58 299.673 54.048ZM308.617 58.208C307.681 58.208 306.91 57.8873 306.303 57.246C305.697 56.6047 305.393 55.7943 305.393 54.815C305.393 53.8443 305.688 53.0383 306.277 52.397C306.867 51.747 307.621 51.422 308.539 51.422C309.484 51.422 310.234 51.7297 310.788 52.345C311.352 52.9517 311.633 53.8053 311.633 54.906L311.62 55.036H306.615C306.633 55.66 306.841 56.1627 307.239 56.544C307.638 56.9253 308.115 57.116 308.669 57.116C309.432 57.116 310.03 56.7347 310.463 55.972L311.529 56.492C311.243 57.0293 310.845 57.4497 310.333 57.753C309.831 58.0563 309.259 58.208 308.617 58.208ZM306.706 54.048H310.359C310.325 53.606 310.143 53.242 309.813 52.956C309.493 52.6613 309.059 52.514 308.513 52.514C308.063 52.514 307.673 52.6527 307.343 52.93C307.023 53.2073 306.81 53.58 306.706 54.048ZM315.651 57.116C316.24 57.116 316.721 56.9037 317.094 56.479C317.484 56.0543 317.679 55.4997 317.679 54.815C317.679 54.1477 317.484 53.5973 317.094 53.164C316.712 52.7307 316.231 52.514 315.651 52.514C315.079 52.514 314.598 52.7307 314.208 53.164C313.818 53.5973 313.623 54.1477 313.623 54.815C313.623 55.491 313.818 56.0413 314.208 56.466C314.598 56.8993 315.079 57.116 315.651 57.116ZM315.456 58.208C314.624 58.208 313.909 57.8787 313.311 57.22C312.721 56.5527 312.427 55.751 312.427 54.815C312.427 53.879 312.721 53.0773 313.311 52.41C313.909 51.7513 314.624 51.422 315.456 51.422C315.924 51.422 316.348 51.5217 316.73 51.721C317.12 51.9203 317.419 52.1847 317.627 52.514H317.679L317.627 51.63V48.692H318.823V58H317.679V57.116H317.627C317.419 57.4453 317.12 57.7097 316.73 57.909C316.348 58.1083 315.924 58.208 315.456 58.208ZM325.092 56.232C325.092 56.7867 324.85 57.2547 324.364 57.636C323.879 58.0173 323.268 58.208 322.531 58.208C321.89 58.208 321.327 58.0433 320.841 57.714C320.356 57.376 320.009 56.934 319.801 56.388L320.867 55.933C321.023 56.3143 321.249 56.6133 321.543 56.83C321.847 57.038 322.176 57.142 322.531 57.142C322.913 57.142 323.229 57.0597 323.48 56.895C323.74 56.7303 323.87 56.5353 323.87 56.31C323.87 55.9027 323.558 55.6037 322.934 55.413L321.842 55.14C320.603 54.828 319.983 54.23 319.983 53.346C319.983 52.7653 320.217 52.3017 320.685 51.955C321.162 51.5997 321.769 51.422 322.505 51.422C323.069 51.422 323.576 51.5563 324.026 51.825C324.486 52.0937 324.806 52.4533 324.988 52.904L323.922 53.346C323.801 53.0773 323.602 52.8693 323.324 52.722C323.056 52.566 322.752 52.488 322.414 52.488C322.102 52.488 321.821 52.566 321.569 52.722C321.327 52.878 321.205 53.0687 321.205 53.294C321.205 53.658 321.548 53.918 322.232 54.074L323.194 54.321C324.46 54.633 325.092 55.27 325.092 56.232Z" fill="#5B6574"/>
<line x1="182.5" y1="8" x2="182.5" y2="79" stroke="#BFCCDF"/>
<defs>
<linearGradient id="paint0_linear_1502_9" x1="51" y1="77" x2="131" y2="77" gradientUnits="userSpaceOnUse">
<stop stop-color="#95DC78"/>
<stop offset="1" stop-color="#E2F6DA"/>
</linearGradient>
<linearGradient id="paint1_linear_1502_9" x1="58" y1="26" x2="131" y2="26" gradientUnits="userSpaceOnUse">
<stop stop-color="#FFEBDC"/>
<stop offset="1" stop-color="#FFBB8A"/>
</linearGradient>
</defs>
</svg>
